<mxfile host="app.diagrams.net" agent="Mozilla/5.0 (Windows NT 10.0; Win64; x64) AppleWebKit/537.36 (KHTML, like Gecko) Chrome/138.0.0.0 Safari/537.36 Edg/138.0.0.0" version="28.0.7">
  <diagram name="Seite-1" id="3IXH4arDJlqiBXjFX8UL">
    <mxGraphModel dx="2978" dy="1389" grid="1" gridSize="10" guides="1" tooltips="1" connect="1" arrows="1" fold="1" page="0" pageScale="1" pageWidth="583" pageHeight="827" math="0" shadow="0">
      <root>
        <mxCell id="0" />
        <mxCell id="1" parent="0" />
        <mxCell id="2ndlOI7fjybDhHlItpSR-2" value="" style="shape=image;verticalLabelPosition=bottom;labelBackgroundColor=default;verticalAlign=top;aspect=fixed;imageAspect=0;image=data:image/webp,UklGRpyeAABXRUJQVlA4IJCeAABQoQKdASoABAAEPkkijkYioaMhIpKJsGAJCWlu+y2qO6A+Q4gP8f9M0k4NlstCvRM8L553/X6n/8j/AeqfS1t/1kKzXrR26bUf+Pz+mUdBPOfu79h+YPs5cy96Hm3xN/eP2h+7j+p2V+//8b6QPdo81/Wf9t/lv8P+vXzn/3n/A/xfvP/tn+C/3PuH/qX/yf8N67vrs8z/7K/8n/Bfv/8l//L/7P+g+BX7Pf9z/Ff5b5M/1X/6XtZ/8j2wf7p6qP7U///11f20+IH9v/2i9pL/uaxb9e8r30z7Y/kt53+VL0F++/sx/fv+9/rfwA/Y/8vxUfFf3H/P/z3qZ/PPuF90/tn+N/0f9u/ar8K/3H/B/z/7mf2T1T/ff47/VflL/gv20+wX8m/mP91/uP7N/3n9nPeb/3+7u3T/e/+r1CPXr6D/k/8D/nf+L/c/3s+pj7b/Wf5/97f7p8LfY7/df4b8XPsB/lH9C/x39s/dL/Af///7/d3/M8Xn7p/vf20+Ab+b/1//l/3r/PftZ9P/9v/3P9N/qf2y95309/1v8x/qP2p+xb+af1r/Y/4P/Kf+H/Lf///3/fJ///eR+9X//95H91f/+MoQEW5gHgItzAPARbmAeAi3MA8BFuYB4CLcwDwEW5gHgItzAOgppDiMzbizhCIvdaeLqQ9y4XqydINzMV6b4sa16/Bb7YrFHS63RhhE7ZZ1d/csqK7+5ZUV39yyorv7llRxJpT27Ijx2QIFFToeiG7PLN7wd82K6vh3VLyMDIFODMe9y/SuNhrb+lIwz4lFCZAUIBxcyfskzH4plYGCR/zq+Osgy82hzmq4Ye3cEW5gHgItzAPARbmAeAi2xPGNNxLigeYFz06IxhPdkhzPuz3p4B/4YYAJM+j4FPCB89jz4kgc1kR2jKOMBmTku5wihrWv8DftioYksmQi5KabmAeAi3MA8BFuYB4CLcwDwEW5iwTIzeFfX9bOz85/GRFDXYCL4B0jkFwiyeUjOxNI6qw8ROzl+/Dwp+muc5WrGIx9HH2hMAi3MA8BFuYB4CLcwDwEW5gHgIsDLrldeROYG+SJyZI25Sz8Qw9smUNvk7kDrzLHs9+ecgZexSng/LGzxcsbTAPARbmAeAi3MA8BFuYB4CFlNbQWHVmsUS+c9+km35SEvIvK0SJKe4crln9iFY7NJwYQvVjJuo6VkfIJIphmxGKgShORsILzPXUYq8hPjbZuOvWdTea5ZVd/YyB8y2GMXV3VwWFIICYfTZ+ITO/i4hYtaMmyNB3Qt94CLcwDwEW5gHgIty+OFDtTA1ButbI9GqhFDsslZAQ87tbEik0bF83W3zSFXhpJpS0dJc/2xByBPBbhXm0MOY2h7388zi3vsaaYAGf7HDbVnDPJeXsJbT7VXfolnZfNoZ1+diFM6lW8ZAu4YpCX+m96RRwiucfXVCQh33mGYU9yzRDWlF2yzq7+5ZUV39yyorv+EJOOlAwRXiWlY6Hh1kIyZbPqX0L6PBV1UZsJINlwLbChtvgUrnjpP9Bl5RdjKiYRXB2KGHt3BFuYB4CLcwDwEW5escx0rIBInSByBetdrH1G8qJJ0bSYt8ls3H6Po5CAPEo+vgr5VcbOp9Tt32nEi23Ax7yTNGCdXchJ1PgnGFvQEsBt+VINMCaIdXf3LKiu/uWVFd/csqK0wnv4yYNtU5MmNIKcQpFKyii1skTB65KBWj4+D8E0dVT9YhVDnEeYL3+e75TT8QaW4U7TrQf/T18Syqim6vAspf3OSHM1q3qonYrOBbOLr9ACbpjvjbpmiA6GlNZYzuqOoLOlh4r+4ItzAPARbmAeAi3MA8BClajk2FKf9IyYQMFbStB6Zv75ivzJV4eT/nQvBEOBnauIlKwJuPFyxI6DiM3mhHtgNjls244Huxmm4Mp7k85d3J0YCHV39yyorv7llRXf3LKitEnNMYRyzmF3CwTwSHrFGsm9vLDU2UWdJ/pkEQmajNT6lXXrrDRLbDn3BZxL1j+hwC2nSxmmejEBb3C6CezlZhCRiYgVlE+b6QE4NUiDnFBtjSGXd/JaqtoICLcwDwEW5gHgItzAO9B7csQykFfjB7nJ1Pe80g1gehytvJy//K0O/KGxIQFa4xR0tDlLRpWN+iYrUGWjyTz87JJec+nxZU4KHNZ7xSgt8Sh2tIbYfOFLjtUeoWc/Sayy3itxiaa+h9PNZfsft24QmBZOKrZUdEpakk5EiMp1/TEICLcwDwEW5gHgItzAPAG6G5Se5ZTf7nGbULlOQ3shG5ZAN84SRD4vodhoK8C5MxoHY5zn745SRpSC7GObEoGkiogKwgCm67e+WQMvBFuYB4CLcwDwEW5gHgIty+BTcwBUOIyJ+YbKDdcekYSMQYcttHu0/IMOefUDNfBBIeIB2bhbU7DcxxB4CLcwDwEW5gHgItzAPARbmAct0qwQnP3Jb7d+YBdlepH5G/X13geQF22wRaMCQe3WtQSTH7H3SFmKKjH9jJEW5gHgItzAPARbmAeAi3MA8BFtbxq7YqJv9e/f8eu8W9r3TjzpuySQNLUehQNzbrz/vJ+m2fzmh3O4ZFOcPaSuGCDUEBFuYB4CLcwDwEW5gHgItzAO9gAdyyDvP4njMkll1cU5/fTaUE1B36HLkNck4cWCE/86u/uWVFd/csqK7+5ZUV39yyorXHVTs0dxYMU6Tso4QTyeOAZzEVn6S/Ol2xqZdss6u/uWVFd/csqK7+5ZUV39yuHNWWas+qD49DxljspfTbkoPGsfXj8eLshCfzLLmuOBxRnEmr02fww8K3J9UtzAPARbmAeAi3MA8BFuYB4APQjTx1CjBkHfw49DC1WNGcPrZ0QT8YVoWsar4WA95HyxeOj6RFVJol0b56QAj6wAGTCX/S5OYiiq7zWaQTyZN3Ls1mMlhqIm3DFuSjw2VFd/csqK7+5ZUV39yyolNw0G77fnu0NE3pqx4qVvwF5pw4KHg4/cCqj+8MuE/6SF5E4sYhvvCQmjWny8Or4hUvqNtoeQvMBVcolwNDsT2AHj9sS38S4Dd/dp1aClwXsevwdH4FMPfcy2fs7PQC3tusHtPw6o1DoG30gPSSkoje1wJOpSsWYc5upZIWp04bzgm8rjdmggItzAPARXmwAawZvwuo89IN5yJn5iRNpgsS8Pjs04V5i33YXsvacYaURnw86uDuSPt7pAW/P/jFX51hSOSdpSnm3mlKvPe1lNOuVvKtvJXfHAM/OGa0GJ3bI6eMsrxrar9x3ZzFacwX14ItzAPARbmAK2UWdJ/pJYKugJ8v0Bp+X2CRIOJACfwOitJVjcekoqRf0zGuaHuqF767PA5K8rfORXflXN2SDC3MA5bTAOQmRuQorjHnYIpK1kzIiQsfWhQqZ29yyorv7llRXchx6GFUceTc27cavUpqS6WJBa/MEMr6enfCss6YRAeAi2t0wtrYGmAKzw9u4ItzAPARYG0f7jFB6FzRmugkVdz966BUi5IjzyIbcLbXUdlItyfVLcwBl8AONTpetJOHAIsCCZdod79yyorv7llRWux9aFkBNZdYAzLUJCyKnynyc6hCb91nMWuvRd+MYEKkWItyfVLcwC4IbWXj2b37jci9zWRcK7O3P+/dss6u/uWVFduLfnt3AMzVaNxUKM/GlWHv++rlyo3YZp/oB3sFLKiu4GbF53PnC6u4+Sm5PqluYB4CLcwDwAzQtbl7/pbRz985sKWVEwiA8BFpiYcgFUTlfa3L3/JZam7PD27gi3MA8BFdycRgeAKmX6xWWD4/l9da5/QLonYqZ3rTYnvZJngfpAfi7uwHqo8uz4wJcagi3MAVnh7RmjbL5kUVbon7xtMyEYy9UZftof/WXbLOrv7llRWurdwQYtxRP70whB51u6PceDQbH2Aw/l7glhgq6X0hThAM3tbqTxUspkbxTPr9gbeeHt0bJtOronEhkJWiLp7MM7OqBfKu4Bq/tYcdfEzjVNmmxCb8hGV+ihKBYal94CLcwDwEW5e/+/QwqjnJ6HPvH32CqsYg948vlW0Hfi6SBtr+wK8O6SojYItTf1vNz+ml+T+VNOhL+o39zxN7ewpZTFRO6yrwpdY/X1xmAfhHNrJCyaedKgCgnPlDXiSSeQVvKJASpwyHqTD5mfQJfj2Km4NB4kXLeyNbKRowDwEW5gHLdKsEHkjYgIw2IU245+orTcGMC+WAPiV1/43mdYj+7l5A6Rpc3IMNyjBUQ7dkks39DaFv0ai4pWjgBCA/ni8a6xPkiFBMY4HxDFFHCaTVh9FcmXbLOrv7lcOasrZ6XGkmKS4tudCUiduG5Gwdu5Ql+zgK4pxMZr5TPfgflphWqChcq3CoHI9PO0ugLss1eMQmoRbmAGvpsYeJ5jDJ1a4so8u2WdXf2Msg7P/UcUzgRewPNUaBY1eHT9URmCeSFMlgvewzh8fDWsf2LduJWCLAy6u/uWVFaZIvvDyjNWVq7tvJEW5gHgItrbZYHu/sf/d5TDj5OK1D5UVjm2eQ+e6eHftqWBQ/ggrGPbtne8l3Gyzq7+5ZKjKLNXuVwDahajEHgItzAOWb0u2NK0dBP3oP0Vd0+q841iaq9c3JKZ9EavkzVbuCE/86u/uWVEwoGCFAyx+hznh7dwRbmAKzw9udVfIP5/ONsVMq8MxMNyouePO3zVlNjFKlpAYq3dOBMPaiZdss6u/uN5K3JXbVSmAFN23kiLcwDwEW1sVUV2+XiaZxyiHjoYoW/XPeM8tGoudXEfTQ/iPb+exkn3b9DDx0iDkia7+5ZUV3IcehZI0/mAKm351d/csqK1x1U7NWqAZlKzspcjaqquNMQctpgHgItzACm7cIDA72ECIAqo7H9yyorv7GWQdsVE4E5P+vHH9KLdUvomcI45SmexM1xezNQJYasSzMddoOYdWurdwRbmAd7CBEAV6qu4+Sm5gHgIty+BTcwA5N8BKnhs3oomtA1GZ2Emwxk11d5hLMJ2AOjBh437Uyo6iQzbbU6dSed2WMBJpGoBy2a6FqVxZB4CLaUVIHzQFulWAqo7H9yyorv7GSItyZHH6230rKtpMdFVtCGaq5LM7J6YX1BpPS7OP9wYeMq+dWh5+bbKno9SbUvF5ctRacBP5nzOrzNidQS5NqmVfMsqbgi3L4Eth7t/C6687N9RlbYd3318iB/vb37llRXf3G8lbl7MITk0RxyxjHi/9ag0MHYMZvlpqMDGlPFALYAL/ldZpVbz7KoAo0baNNMXyhuMdBWCuRC6xZUtd4scMOurSZzVdXf3K4cP4MI//J5mzAT4aNQEgJiJDnbctcxBMu2WdXf3K4XNS5gBybj/rXS+x1nyrK/aw0ATl0yz10cfOlhjpqDG+h6TTFk1/OYqYpdMcbgMndJMKzywkDbFuf9qJqgUA7hbmAcV68Loi3KNNPwegNW2iMEihNVa6tFjdu4ItzAOW0wDkKzkVLG0LYdO9RP/R5Wg8c88zDH4U2ZmNcd26uEMkpOAeAK6LOrv7llOvcrgivVaYBKdkTjY0QdkPkNUUgvxERJNqhd7gi3MA72ECICDyRsO1uYFYun9aWW41WkrsHndD1lMsDQ25eJ+OU1CxzO2V2Hh7dwRbl8DNWWdL/JtCLtxgaYOljnR9MeVLJ4M/vzLtlnV39xuggxBADMzOpCKcW53hBWNI5Qb4qlMq8pK6q2HFKUx/eNrXobSIDwBXRZ1d/csluvXz21nX1oYWsEgM+mgrPD27gi3L4Gass0dwGkBZcLI2ToL00GObDGe11bUtYKCou92u0VmqKq34+/Ut/cbyVuYB4CK2PIQJzWP74BFuT34pZKh4e3cEW5fAzVlmrJjD2LJEOWe/dyE1D2aG0W1yWwkWxKfCgHqmcaBtUCLa3TC3MA8BBucah31hhbmAKjlQHWEHewUsqK7+5ZKjKLOl/rCkmnXdB3HykrDFlRJw4qFWggItzAIOCy6WNH14e3Oy0CVeK11buCLcwDvLeriGCLAc27QcUGOiKF0uhXKQygVpTDMTkywx36v1YbLos6tdW7gi3MA7zpfAMs6tcFfMuziJdtKlYodMLcwDwEWBtH+4toz4ch1m5EWusvJG/kIgZU1J3ke4tG6m7jbVBVDyJw371hB7EJlK7t79yuGm5gHgItyfVLcwApDQ3iJqFmcMTDCpvTSkshUkzJrsL0GuYB4AWF7h5G1kMWGaxY7kszALqDsCpOx/r86YB3n8P3ZMW+1UAEh5aK2x+YPyT1UWjhp7PSvuJWRN/5jQhfo1jZ4+CRl1d+iWdj/a7kt/Vdskwas+8H8uJ4PT4blkvwNo/3LKiYRAeAi3MAMylIPDfPwEpFUFEmFSlRrcEIw1GDXPu9J/euDllcgy+TgM+Raue5Cos2SOCgt+YTCStDu3fT/TLyN7PrrZXXHg/syIMk/89fDjO1DU6tc/EP+OQMfKualRpMe3kk8CWp9fc9MPg5SQw9plJTxl+7KLkYX7TsqK0sOd+YmxNDZMk3fuUj9u4ItzASRNnTZK3Ja7OagoUmi80XIfHoylGrIrQbsPj51kNhLpDXYRXGlSTfOhiG98dpW6pd5tw+0BVoYWyreindwRbmAeAi3MA8BFuYB4CLcn2aYByySNrsszDCs64TS4yJCQU/suizq11buCLcwDwEW5gHgItzAPARbmAeAK6LOrQGadNxHKIQSkLb2dTfiJyu6NFyI1aQUck3Yf/KUEvNg3UK2VmtC02B7llRXf3LKiu/uWVFd/csqK7+4t3xcWyzR3DmMkz5ojzPlKbn3gjZpdNt9U9AmCJBEFoUjOc7B0XFbPoA5gRyCG4IsDaP9yyorv7llRXf3LKiu/uWVFd1QjMVu5ONtHYQgkOmskaalgKhtz6adZlrCxDpU7vqwxvxN0N+k8WUYu/uqS+X4dSn3b1Em2+RyqxaZnvD5I/B+RLYngOi8uhI0BCDtlnV39yyorv7llRXf3LKiu/yxDMgt0IegeVfW1EbOl5K+TtnROUh2V2crtpTA6OP+TerygVaYOaKrtBGpL3hF1I+wtzAPxhEzSegDFq/MPmzLeZCcR7geAi3MA8BFuYB4CLcwDwEW5gHNwjg48MGhMD2Zomv4xroelyDUhBcig7AdRsMjGxvY5kyeHYFo4TCOiGgHgItzAPARbmAeAi3MA8BFuYB4A0rZZ1d/csp4X+3cEW5gHgItzAPARbmAeAAAAP7/wwQAAAUrjJ1auimOxAWWSZD87nmVkkGk2OtWVUUEo0eiOkqrK3o7875q8j1BeXu1SjYsRNWn8dkPnHjv7EIZ4gDvaKLnVCRNQeU0rao7IPJ5y9bSLTmEkhjx56LMK35IGm0gQ/l5kzT2HiuMMiFmBdanKn8TG7CJjRwH+6K9WeHWDpFE/1w7mtQ36tnvI56v2ENPOXiyV8XlbyQmGIgu1ptnpXtDQ36FNBCyJkOakBs7Vf5QeSBwgbyeR7PF/dQMVl8SyOFshCnh49VVG5obW4JFoMgiYHxn3VPwzSr0ceuZt0GBTzAkIy8dgMyGT1rmTzb2AAki/Y8FawfLukVfbSltPFG61BfCsSRj2Jir8kWICMLC1/H7iCGSwl3hHP8PKEgR0GE10iKNmgpTnQJg3qsabTHiPCk0MYwNVsAPCuroEEWU7diOq3zoPRzwxZHn7a4Tid+NSbKWITUG/Dx7u5WnKM7uAmYRNSJwBld/6wqYPT3o5g9YTOm+RXl5YZlprRMXGuO2yrCikEsCofWTKElKi0RmdMbRRZDnk1YM5uBGBgip7n+MDFsl8D0uRTDyXu09vz6djLakVi2BG9SWNArsu7CIazI7JopqthTN2WaZSTaDBbP6bHtJmMEjmbjJXC5eeh85xpSWACSw2QNO6jlx8OCBwfsxEzp56BzWUB1mOc3MLBZMW1BKhOI7lZpzgigT+banEH6RO+NSjlEf898zgelmw3sR1k7yQL9r47OYHxt3Wf4MkDHaOXLcE0iTBPHvbU6bIRPsdfbrrl06FXxXfSQjJvCcZokcBnjVpZ9rf1BxJ+8DLL0WuExMA3XtqWsXwIEYJV2hXJ7cAqMLr0Fuzax0b5K2oaguWH0zT1UeFBL+YBaSrn0glu3tnchVQG4jsbX8BTplnoTvG7RquFKxNQAIWtoSbXFf6QC8AU0tMKljDj09mIaLYSALWSIyoAPGVFE/FTXW+J7HmQ4wj2Vjg0RELnlzvm94UGaMxeC0ZVuJDqpErZO4hMfVWJGD7cVicCrrDbgpIKeDl/K6SgOTttN2Cfj1Gqb6833tJd4MUFRiH3AA8SsgthJeFGbasJcfFOgDh3hF4k8g5QlINrRe+TKmZsRd/gYEl5pYWMvTqBxDM/BCeMLFOvuOcZHFaJWiFpJYkg1bmNKP/Ze9vfsMeD2LkcyNA7CW/EFevjv8UMLyBW80P4kuRPSNFOzKS+oAb1MSVXCyqxosgBpwqIET26/m+hrP/IFR4SGY/U2P9mbvEYEEWAvDu8/SUZ5i1C9/7a6UdHaSkdQKU9BFREmDf9olS3VkVChiF9fOnTXwpsyESfJxhck5lczx3L2k8wRV6wGbxhuO83LiP/JPCD6Se3VfmjUfNsghxwL46jgEBtgmGC4gdmXvO3MOUp39fS3k3gQRPbmycyW8ijNuvMtOOe3M3CT1nOjDhzGiOc3mGGFBCDtngt1laMDjE9uP4AjjknmUfP1SadOZaQwvnzSB7YspTdj9Vj43ZPsU+69HfuI1peKHdAZNKAoRPcPMILNvmLynhU57ff0czIxEtofVwHOGCpNUb1N5qg3X98fA87Ur6SrVMO6qXmwyGFa8SoQbKMenkHiXdXkUa85nI4Wj99nCFwWdRw3kEQSpfJ14MNmTOXh4O9yd/0+fCkmPEOyhzNAuaI5C8RHq3MMadTLGrhYpduCgyK7oUw04qGEpRpd6LyUbihC+G0g3IqAm6BqC0D9KdnfPDZN6Tw2Hv+p28CBs/ka0St1NwArHl+dpqPvV5kSaaJjqep9TwnjA82T4L7D/ljWvbd15GS5Dh6KZ0uvliuWP8T/pfv9lKsieU2VX6S19oVgn5DGGoAkPzbI3lS+ECthoVTYfRf/h6QrLxjBFRrsK1BB37IeqZxhBcPm10rjr87+j0+zqQB823EpDh4adh+pYeYNkG46Z7ixGFGy3ydR3mhXPDkg7Jq6tHbW5KiylUAAACOwf0OVDr+acNQh8peRm1Yl7LqFfl05nbSATBDMnwioaU7mkWQeEvFBl5EtKpH7ET4MTAg0NJSKX9Fwqin7kTFK/JtVv8exDPptyQVk+bQ0HXquaIPQAnWdoGZPfKWsJmz1OuP/QNRN5YzGSF+qkG9z/lxr5cSMccqkwowcQjShtNWqtiYwofwkIEksNnX81Gs1A/dMRwbSFV6jjv/H5h3H9m8eDNkEACvzE8wWPE7yUaeSvmdbWioDk2DVnSFRQVc4Gnb1//4C2YiUrP7srn2J+yKqIuCFUfMGHX69dbfatc+MFGuW/r/796i3Jv1KcWr0AEap2Ud9XpKO1539BWel7pRxRYkY7JfriA0pV5j6NiQWNI+sRynS03cV6ZnP1TDQwOcnP5/Cn4ejQjld6fw9qKJmN3S3PxVvos2gA2TY0Z14cAQmu1wrDUc1mPMFFuj9SZdOX3lvX0uvTmriUK6zq1i9g0QnKVDxplHRuGcfbsStvH9ynGYvpCkv5PAB15ITwdqDRwKzKczm/dWvQzykZGLozWigFpDC3Go4qhanS13ub8CzsCA9TtEIB+FjJhSGbUWy26Rz+oqTxFRFwiUo1ZRSmS1We5ekSpuWV3vEwSQdwBBQNujoYoevRY/GoKVcyaP3Mao7sw4Fj1Yxq943mYmr2/ddHdgAchcsjO9EmkhIyr5JIkv6iKSYkUoayMeU0tDZzBEZCTFkoB77yeC66qAXX/u0WmiMAJtN2Yz9/VrlL0UbgUPJwC0Hqq+kpGCvco6ma4EVXDu57BdeSwaHoN23g5uixN0rSHLfRszq9bZngObzypRvLx2q7d0W07l/6VYJgR6nXcb4U+LFpQ0AJIOYpzp+9sE1e6NpVfr3AJ5R6VuROiqUkDhBoW9QKbgnfStGnFDVfJbq8uXkNPY3BL5ewkbJkkw0eNSy+k+hS495J6kjIFRdd1G6/fI/w5lcFSBUaQNloI8DdjTr/FldsWuXQPTN/7UieoE3pNiTP0XbyGo6Xbv1/1u49/7KuvC3JbrkkfRfDuiLtggGBcjW3MUaHuizlZvdhDYPBOoRO6dTiTlQ225CFIhkMs+9X+t+kK5zLIf6th/os+1iKhJf6TTf9ejPQSe7K4TAlgXB8GHZQk0hQ6d1HBMyASIIfcdjfq30uDQtRBV65mVgOwqp4M5cc18hsjJGksEZw5szjFOvEAEnsNO8vp5JC4HUJeHk6OcA2csqYiS656kch6tnczz/AZrAOnq3LdwMz/ps443suv+S0zyUbgijhLzkAhANuY2Tg1EnNI6LZUQsRX0uzlVyYQ2lD5G/0EkpoPdu3TvcsKMC+3LHzlXVT5rVZZhqUIEMQStxJrTcAjX9wp3Z+R6irjQwOSHJvZNYa0w8LK6hF4s71BP/NDUYgOmTfcuaQCGAHzCptUfLSnXUW6Bw80ftIc9Ev64Um1NsMmVp+sxnWdWjGSXW9wS1Zk+JL9aLNdGrcPIDfCjo1pRoiog4c24CR54iTMI0ijpivw0zPW6olvxtpGLsQ8vhML+851g0jy3baz0jaZE/ZxSuxEJnNuzmn0t1NM1ZttYM/VDfKu8vu2iV7j3ZFSLW2VJaJUBRvyvml7f3kGjXUiqOZv3kdYNsPTy/fMkNnkIuvw4882Mv9yVyW3807w7JWR9IURGBMAUlzlVjCrICKOqY7akPrP9e2DnwaJbJc88sAkUC0+I5apjl8GHQdcsHfw6kxRnHS3w88diQBo5GOYBPExNFC2tLBn+gXmWyvORdDqOLsCppipI9LJwR3RtByKTAYH47+7KqFpZjvCJblCoVnXpLf5ho7wTovYVoBcOdBgwN6wRNR2IYoHlsR4YLh4CvM6u9TjILKn3WoAHOpGJAcSPZrM0A5UadqGTbXR8hKBnHkkqjZEAyc2uLc3oWYX+UrXJItTwdNElXHyqhwIJ79dFSdyaFSr+9/uVyMYIoGWncEazLhNmxafr1d0AzCUM9PwfoX4TME0nZRFt7Utls/Y1xHiehbnGH4FjkxXQY4f+CdZ/8R+93rQvk6K+16X9rmoU59LE+gXW4x7D4O3Q7hG76T38IKGESuCP8fEXtifkstyffYUHurUTFOgneTIrkuHuQTy7Z2e1Qg/mmf53cqJ53+4a/TaFFow0nr2qeBTVMLCU03FWPivExNAbYpxxll0z92NJgfV8c+7euX5vYTdhuqUy7taaOGVe54LnEamFRXpujYgM94BHGqMfQdvDIMYa51C0au82AP3fhV96sPLswE8oWuXPZLm5Ohld7yX0x5TC3PLTS4I+eNjM2nX/9hBy/BveyriANU8mvvMVGRHYves/H6vhc8GEpR64PbaH0xuXgglEzNrf0L1mCGDW8QVsv+F/gvtfOYx61dBeERjjCAEXQeLavW8bFfz/Zm05s8s4svhKseRV1G/FYwelcsRQ30M4AyZiMuScO+RUBBYBBHpEDGkjS6lRb3z7f/pyXD/h2yOTWMHQhftD2sJ3ycM6sB92/S/VkUMCrVil1g0P5QBScKTcD/0tPX7v9ZkHy4dvC3hTUi4nVWQKliieNjFM4OMvoLjDpmO84N6FlFkrzk3FNR+HhQ2W9AluP83+dclhUIGHtyJ0VC+Xn+a1qQ9UbJV4T9fDXAkd91yuMvoy32jme6CmzddeC+lXX0ghE1wQhHXJ3SpcuGL8FsY8l6P1OLpKHWuwyxk+dqcNlwVGT429kS5NMDhM9Bpgt/vFbvtPUUsEH3vodonqsf3nmKqmKFzb6lPMQTvFiXagWh3U1+2nUSYsrRCXcwLvDyuDUG8rN7qwCBKTsybXWDYQzSB9stfgIFQ5aWr83zHXOeaFrLNpaWXQOXjz7NlbAkXK0s3eH76mcE7mT4v70L1IdSyHOg67lzMQDrPINXo/IodW8TKscXwD0F6+PZfb+GIPLRkgaMZ0MemGA8P97kykMCng2PKSx56iQoVwz8WXMzmriLI7rqnpVfgRLqre7Xm69Z++Gm0b5gFFx6hr3V2Oxv/IMbP9acCTv/lWT5b/9IksXP5QFNhzdljz/uUjT653FsJryGH6zriA1gHHoYgeEQh+QxE0c4HnoCzf7Nr/pZpXYPzd1BleHiOh0fdgwUdmaPQXavChiT4QvLA5cbarVARJv0sBmEHM76QRaBFOrKpqQF6MCRhpGJhQH8yibE3xgCbJgENDZTfoBzEXJQNSMAJdfdktDuYQpAWEdYSOcO5YYXEwaxb0xBNUcikoqXH1kiboq5EzskjMxupQ5/7RGN6QbHSOejw/jHZ65UGBukaj8kSNfY5SHfb0YClk4zFV876cGPV1KXmEYMK5oS3McF24XMR3omyHPrTVnuCPA1ASallm7wP4j10+7OtS4+236DuoV5SlzJbVOsoFJ3NuPf78t7kBM8SYmWRnzqguWa28+4j8oJ84xcmgvUAebdmwRTIzfTWRQIgunbW0NAR/GRg+I++ammZF1VJqdO2pn+kjXHW2kOyNoj9Y1W9qivrjWzTqi5uj5MCb/5T8lGecYWvqtPL8j6oW8bTTiB3bEshdVK9euGyiMwWSwXOX97NKSyuSAfZhUZ93qMQt/K8U9uWE18RLqgQy3bXDZiwwQrZ1N3UTs4NSqljkfju2t+zfHYVoYmfNik8oDRDrlk+l8pT8B4kjejMEvdhOfQH5ZcaK6QbRT4gGQjY9udk93csbs/B+s0drlSSIm9hIacMyljcacaAGy/pjzjFw9BHXenfhAgwj+ilkhowqk/MsxuKTHriI1Hv+hKXWEfTxXf1owOrN2jBl+MXuhKuTbPVJp1b/+jCch/q94C+e2AoQT9T5HcJZYp/7/fK040Nlp9PKgJNWd6w5NcFfdLhpad7XBCgihwdPg8xT6Y06+prGJWiJLYScUjkM3f3oiheRTCTe5/5ZzRzYVM2lVZEyxFUpAGsaOCZXvx8Vk+kFwoMmq0VlVpQ60hXisgPSVf27lf9I5V8NBfkY+oO/35wlpyMHw9CPUqWtq1nBmat4f9ItftIOqGaSf1f30nmtc6S8oi/yP5pqhXw7WojgyNG0K6lS6sZonjaHV0fqqHrxfE+G65FVulnDqz0jQFgK5vtKwTxZDOlxrNWhneeKXLod6cNrxFG8pWJsZQU/M1YA7FSCu8OAv5TbF/yWo49Ss1cMMN1E3HHWgjklbETyVp+QwLNZn4gmycNoisHb9/RofslejNaTMPMBc/44eaWOxAdCrm+a2b2F3tOjl9VAHuJpBJ8bfGz6Y9fSgV5gh8qmJYSni6Ckf+WBKW/MpRFQcfapdMhRCeSAAADkvxXLQS6geojM0IQyFOTfaoAJbi8OXo7CSW6VyUeyNmMpG30rpMlreojsq7GUS9caU828biNYnFg2gNQh1v7w2BrJxxlZBlwGrrLPwO51iWSv10RYUXUrtQmfISfhzQgUUROSudNx7aA07xri5HLwZ2c0idMX7IlrV85/zgJohuB5dzjyhy7BHLsC84BBzaMfBfuI5KCUEKTAbQkm0QMk8/QKj309l5l24afONmxgrRBVlz+quT7kHGaMIZg0HXHRUuCTddfofPkCOD28dvbQPrI+UYMilSg6gRroCLsTBfNzdYZ3PqSLME60l06qc/eG6HZL8DPjQndJxycHA6eyY26YAU2UJ53+q2ICkKMkVEKm/zZ/EKFAnQ1tkd9mFx5ayr6sRJRsoKiONETwjtsTg18F/l4IdMqZQjDE5dHoD3bu5LTduF/Fp9EYdDaj0VtH9iV3i+T32s/zJgX52dCkJbA1LSQ6wD2Hm19mG7YKxtV2slQgkAze/l53BNDSEUfiPv+1VTeBtIvRQikwwrdzTpG4yHvEt7DKK8jzYmsc6grz5da45b2kZh9UcScunUMFQmTqdv/j8dhuecOdIShJQCoXALP9BHn5hn1GyKHwIDslamL3r+Y1/ArmmGk5oqn3epl/cn1zN7KEMgkTl/GiPgtsfzBKB2/3rTdmm5pqFndg2CcTLD53TzpTf27GdTwpZM4jfGe2Q0ZW5vrJolZtYkNclOgcLb+Bmv0t7mtPR4Ka9K6+aKnzDBY+RqgIOqvRdafyp1GeMslRdpBOmzE8G0JolwVqjFNEBa70IX18MhEbjqIsYLj3VVuYM74f2bxRfQJoSj7owlTM4/ojaix1rkKscoBpwiORGb8j9EJALeRP7YrMIKeJT9Wa4/vxA5HkBLcxwR3eiedQ0Q6JTwjyRF0QozuTbKxS5S9vo60AtuzgFifnFvjA1xhi0ktCxGF3GNwUEokgjk4CZepNJYAeFqVjJxyWL4Djv5jKdVC+uX9Y0QK2lRWiYDD6oqy3n7DIv3edkQ2e1aW2N15ocQUNuZnY7rzefZ343dS5RkFD3Rq6mOmHOMbWbglH0eS7C5+yxTb8l0S9zQEXmqFYTI4TC2931PHHy6rzW5OiAn7QIOHzz7x3eEUJCEkkLyn2JE5T+2Eoqh9af7S3iRjnFB1gpRhn5nAfGUzxgxa8xO5HXqNbehssbbUSjm0Jr6gzqL/1oYfyaPcy8KoKr7Gx4Zt9Fw+Rh57B/9//wdDYqGJIN66VTrSWyG5ypxmWyHiUzUvD2bQQOLiM7vDvg6sFyCQu/q4kFPtuuxPcyobp9wk7F8LnlDkGdP2+kbati6n1OSJyD3gfJPYwbeQckgYkIiXtNpVp3mm64MYkM7d7NeXyiEKdAwtu+jN5tivNMTNU5HEYWLfHcGLfgRZMbMGQGZ0fCK7PWFM4k/0QZyFkmq+vGpXVAMfii1sKXxqQZlSbaKYCpjGSEDGWy0baHMJsI/4c6Q9d5fb2VnZksfxF7BhERVuYrst2HcH3aZGqm3r/6dDQG+Z2rnptUiK16eg8LNBgg9NGU/kZprGLOG0tc8qsM0cr1UF4FREQ+TUbLSKaK9eA1RNY860JhjQfYZPKy+2qUDZKuFwH8wAGKimggn+hzp9cTk3BqSixMP8VgcZAWbIBtYxamPEvN5i2d2DJ51O1g2aQo+1WV5pOdppaplzjeOv9bxFjCLnlgBDbycRDkuQJHWrVQFtHNIyWNl45LRLYjYtJK62zpEA8IGqaoLh6IEL5/gNss6BOEvlZCre+bdWrkxazgEUU0jL9Pum1itutk0FswjwMv0XT/Tj+bkfZBKLmdkYRsdMEnJ1MAm1KeMfic/0Kl2qvT+DSCx3Ex8+TFmb7q3MufTl2G6aQutP/9am4u60bAHhZLL9JH/8TCr4Eem7iVe9M7TGhE+nf5AZIbn1Cw+kPw+YDyxVMga938AIKKyZPlojbE008PnOiti3lApycOR7QqgNmVcr47Rhwm59zRHbVeDqv3l+MIU8vCoeuU5ovJfhLy02aVeivj55H+JDFLVrJ66Uu4nsbzTuiTkahLbrS1bfi2k6rnTRRUJAzpXIFHVkbH0BkAWMsYfM3JU1rzMvbDB6gwUtyFZD66VhuGACpjDE1vHv+c6mfiV1F3PoEOPsY+uTA9TfsMkF2FxmNP2043Oczt+7PAjKzxIMORhj3M8MQIQX+cQCgmTKn59PKroNeRAjs6jdhk2LVEytucuXtU/xywGZ5wFZHsJ0tC8LZfCXIkhniWJlklgXUykJZ11xOCnBqtOTMMCk6BcA2EF67lmpeaOs9AjY9OvIngfyzVrRXdkQLYO6gfgsnUcyiu6x+W1icfpTnMTAKxy0sUpUkNsq2g483C0sYQku4TPCMLYGbJuU6qvEAdsvjssNO1Sk/MBPH/bVfdAA84s5+DbzS/2Lk2hmAAoPcKTJriGdjRNKw6OaMLVQFXJjiU1neHJSG/7bof3Xl3pFcwbf+2WvIhPKUg1vNvWkh2gGMyTSt7JMeEEEExLfQAc2Ydr4QREmmGP9an/5xbjep96DkFqgw+OGN8RhFZZiTSsNdS/XnM6w/tunasplcPXeRaJKdt3VVqGo8WYxfo3N8GZebor6A7+JLELyHwIyPzW9PngkbjHYB9WwyS0F9wbGIdeE7IG1aQpIZNZuJ8W0aZlnFAvQdvKflK+WEEV6lbZUSAX1aB7EMzZ6gzJDvtOMLK6wQ1QntSsTKyLOl556y9xYSSnldy/40vPTEoYf7PpnIIQ/Lw2aVAlKDwY7pl/v8hdrVfTBbHFq9CoVSl429Pd5BiCymHUlJFEAP3P9FhaUlUK3XC2XYP3Jj5WkYokOoweIPqAV+HYIHssr/S87POk1/3OXFUnfsCJiC21ifSkcOVNim44WLfpPVUEQp/TSnmqfRMRtgaZUiFqRd4JFDVPM2DDk1WrqsFR8KeaEzIhzSzSr0y7HpcMoIs0aOt0YxkpPIRYYWFsUmu9qqCf5toMdNlbtIREJ+YhwgnKrmbIt4wzq46Pi6rQzYbZEXB5fk0JQs/RyMaXKjAqOvEMr4zgZ4dV7vI/gLsvnxrIACSMKrR+FI8GJhsgk7UQqEQigziW7EASkQE/5/wg7iqerx6IHdpyn+iG3ibV5UrikLV8Vg/Ucfq2lCt6bui0Etyj1AOHnNqfK5B9vhf2RZMKwLdP4lY5mpfGeVuu3/sM/fNdwjV+N4t3aP+8Y6uvtsJVQBdmvPgK2MVg2z+YfHChmfyXALC4VMiYY397qcgx/UMmk6FU4w6Aw5CCVWBUOrqzS7j/mopKRLLQZ2X1l+CIvWjgiY+mTaeKsDqfKX4uZO16VXGPA/HxSoQyACMzCFonXIAY2XYymxBoQIsGCDugWMt0DG73ioeIiRLU2VFXyyQYow0g47E4a3sDh0ruMyRX09uEgvHF3YBYgKXJ/ENuYwuviGqvP8AsMI5BL76giryyh5woeZDSsvs47dfM1SUmPlbRTE/midlGivy6TBhs4XSrx0BHkpBkBPK1e0jIWAuGmEn36UvfrI46qMiYIFBYLm57vO9TcrlK66O2J7S/nlWh6G5MoXSh6r/yl7Wirrle0faXyNQ5jO1sLgQQStEbwYmJQakIyG/tLmgwmOwA10rl1+stpsNXgNcPONMmcGuY7Ubl/N1FZjqcTKwxr/K2r6gTjTbQyTWSnm8iCWhXZJhklcKyLKVqHZcyjr9im7hUm7/xFVTNX92QSyjsMXZLLzES4XXaC+FIZfDqy07QvPgArp0iJDlKgWSfpuc5v6ef6woO5qZ52vympwNVX/dm+88IC71puBU77IXmrgD6/mkDEb7/Ol8H5r1Sg5Kic0gEFdXTnVijTEOiGemyddquRSL4kleVCQnokgK+TSqZLwcuKaY4UYXUbXEbtZT1QtrP7tEo/AjDICE3NXCe4SLqXtSGTJMQtyQ2BhcU8fft7l0Z97zKDNDY2nUicP8HpKTu7WwPDLohXNMvn2isC/g5x8SHx/Onqf8jZGO95+pgc6cNN/7v+Cl3cHnF41jpbPM7jSaXX1+X7sAi7h4qorx2eVFBl7a28Y6x/156cT3RTs1x1PnRJaydboZoYZ4aNWgzRoTSL19YYApe6LoTFYaL8Q4Fw3zEitd7QGf6bpHn9oKrSU256GuQ/F63PVcYSwyrI3V/bSj5r4RCK+9V3F2dWXvK7uy0NT962QvAWdWs36xsxwYcJMFeC1mVle7nBjYm2LN1wz8g0eNAEhLy7WOyY3JW4sciUxhI/mhNnUV3oafnoahaLVIWtj8p3xrJpX7MbU2MmZMmKHOqawv9orziIVwpPjMZwXquysDr8hR+O+vTpDIYc40nztyogvF/IMNpLB6zK8IPo06Gp45X3YBJcIq9KzUi+uspwKHscJu7P53pIYsAxQA5uZxV0i3v0CHPmgoH6ZKnmvRQbDhIya9LJWTapdCX/oc4xMgDyKOnZ4EzWRwFmzLDz7uATHygyxK8ZxtYRQP7rFVHyDgHHdT88X8sSxw7KVS0XpSYQImiGGRlJyQVzMdhxI6qkkZbFr5kjLELk1//HlLh20jhAL1ONq7JfNf92OZnIP8HL+UDrpKlSbe562JnzLteOTsq/CUZ0OMXnS+rZ1xqTE/llVoEFvq5I0k9ctG925geEn7DBRZS6x1SIpwxwVT+ScChUT7MoEtMY4e1wwRaLk5ykDo330Ar+JYM/EbKwzMuzdMTYetz3CJRaPMd/s+CdsfGg389R/J0kErfiquJrfXyPqxoUhPj1nWZrwtTur9OLY+VgOAmpMjsKaAqcdUsvUPhIcc60Vq280F5UGsdH+NeGozIebuJFlQrlEtSw3SbEMXKYOS6bVEBihc2tV/SnvQeuNEQ8N9L5j+S4Rfme+V/tvD6vwj3TdGePyzoAJqFY4IhVZ6P1PfH15IwxVnELX5BrQHIqCgzUS5Ry0kTTNVHgUKxrCUL5Ru2fcEzL8MJnyjnpdq4qreQbHsPKur6/w0IR0/+j7rV3GK4idAbPBakT3tckSAi630wfl0K6Gz6RL1KTkTEShaSbxbFCHgdgnyns9psaRkiHvKPXSjQVjU+YOZXiDt0OWu+aqRzxVe9SjpTvPU9TUR7ug0iKxMHx5oAaApzQyIOYqGMaPEWarkH1NzwG2Ccw55tdEAlK7LJLBb0JF24pqjhiI30Ucc0zQMUIyx5hQYcJRlNTBLD0gtKpl3rqjFcOorA3NSz+5HvOEFSdp0jF0DWzgn8tZPqM5vvPsebJ9FKdVk9WNGrcpWDFrZ7DdA8V8F4azZyK86R1TogbQgzxBrjxpR66LDGVXi8AkfFjil8pfd+uKb/5E7BLqTqMiV18qcdsZBXnu5Gzyrhnbp43K0+BNs89LEM/RB40dGHGtM8AC2/64R1SaiLC8d8w9HAa+bwQ3pLdk3wNNX52x+EedYzeH2KMzXKZ+e23B2TEDPJAIfUCSU2OJRyg9X3q8ula+IvoWy3LiQDmVceCXiAgAxRXbhlYuaXnf42NF3KUMyEYAT70lVljrHXKMHUyKghvZZxeQC4xTUdJhNTqF0UgVQHtidMYIad6a2v7Unaa3o/HygO1dhpvJG98sX9vnv5KYvbWDv0f/fL1OG3ARPvjOOTpTrpveGWKwVoeAu/rIO4JQC4qPbnVaIwKOZTPyayhMt2wiVGH91XPJg3BvOObITETEyXzA57kA7gPMgDjQ5F9UnXjKqFuyN9SkwX1eo5H4iUWUojHETYc0ueWdAaKgY/hx+KEoGGmdpQZHC8DLTDPyrIXFf4+Tm7A6Lu3Bnf6Yt+KsaDmrING+P6gAIyu3KTDWLVHh3NlqhAShLy02P76h0WNQFSehPFhxfehTzBVFij1ENyMWtypXig/UUFjeINlTJdfZWmxDNKrOVI4x3uqCYsihZxqbM4fYjn5hQSShKyZbZU6HJuXjHcujQ8OhtsvLY0mhWF/152G2lOeU1VA5hx5qTa3vgFqMdkTAuWm0ic0FO7qAlLGY9BcJMlMI5BkSXFNkvCXZkKHXMMJZ/CEMe/NxPdtwfS+K/GmIzvnwB/RdxMHrLHUi4JsVHjrmabu0U8rXYaBGeYRCk6FMTAYaQOY/tkh5i7U+E8LK/lmjWj/4gm5B5nIq33UtIqcw2z92cu7HiCg7M3pbpa7g5wmBdnZg61hxQoE1xH1tjHy4h7d+GRnMwbFqozVbZpZYpovn2xaEkLV2S0FQ5s5/JTGb8iXufM1xFDGgQbq6fUK3MrmQHrZf00wSySRc+HTIFTZrbKS7fludZwCq57JSk87BtqG8mJIOcE3RKLU+LjE0W+HTawCnG+c2qv9FmCCLKKSvBMfPD0Hp699oH7THT72UhywnCabA0SnQ7cES36QIpjxDlyofW6+1BOL/uSz62YtP1AAtr0hgf0ti59ifkDUj8djYYVLQwD5zlbQltwRSvEZXDioHI1MqZsGMpKn/kNfHJqiMawDuV34XAGULSBzG9GK+ZJ+8mwjXcI65bA3yF465PGAtJM5oyCEKgXYw/0SyMVTlDbrsJBJOzprKYPDdwt2q8BiZynQh64VedxcfHC2c4YKIyOpzHwW4XGhbX9IXtI7NfN+EP/9yGAZACkxt7z+g/Wfx7N/kaD2CO+uQx5N2zgVyYlqqS/ixe+wA73yQYl4ScoAu1UtC9QSQyHaNQs+tSf/MGjGUrI7k6F6cWZ4mNAUH6vrCNsN5v9EaMIvqI+fXoEjlfA8xDaDj+JLXJv65xpMxgtr5fAoAt9HIRFQTi9vMAX48oPRybGXkXFfakoueonUtQxxRq0SZbgxDO0RpHrpYcCWlwQECp9RCuCGGWIAY/uBD/StOASQtx4T0QcvPnqAj2PU0SpTJgINT8tZhE4PoESyUpWpZMstDFvfMoil1KyR4tYO5qskGyEVlG4TTdFhfSjEFjuRbNZr7lSy98TOC83QdmYYnAYUBQvSRuKxEj4mhiBdNKtdYuNmoHpp7k7Tb+QGGoeWrvIMwdJ8JFeZSYY0i4Vlqp2xfETbqc5ZVHgB3OdgSb8L4uMquMpNC0xIBVuLOBRC7ReXi98m4Wfocbk5O6l/vJ+nm39f7K0lorxLKoq55QGEWM8//N4S7JClpPx0+0tszNsNySRNfKyDF9nnQp8ay8E5PnFS8HbdNUwLMcf1uJ2Y9ILz5CVI91kYzmFwAqK3PIJqIYnx8YvoAqWQwgxlR7ypG2IZ3XJw/ZACx565a2WRmKjrTKd0j8V00jCtTXnu1GU8p6Bx5xZXt6ABsEwpnh1KY1R7hdOk5u3y8bgeiLqamyOmlvjRlzuOPdXp6kaq8CnxKQ2Jgvf7AlFHtBOI2kjpIj6999AIpBmea6fTFbGocS7cuQGRaPrLOmRfcjfpI3dYH0iZlLa+38rMwkw/35i9k9UASRG5Ykya5RFMwCBKAWyN87F0ho87YufjnKx2QdjgEnC9+XiIZyBGkzhg8kKqmplyy9xrGyExG7pX60ZhX/lBLI9sGILPeTYGmywPutfuVPsJVhvHZRQlZqhcGgilEyo/Nk9wVzKkS8vl9FrcRvnMvv900ELZkgnx4Dx/Sy8CPBQFkAN3tfzNoEdUCzKd2ps6NjHK8BnoBw1r1LtwBz+ousn/pbNj/NTCL5wBL+/UE+5wCr3iWq9sOB2QQ+nEO4kMFnoMIpzG0dKbtv1h5bDGRo1qJJwsqTzB94znVbvJHrpfs4bmLLv4IPKEAuehyF1W+jCkukTnFMvwFm37AqcWf09goUA6MvVFKokKTdcAeL5g3i3GrWxFyT65TtVsmQxnExBoKrNZ94afcR/kA6x0C70vbHJSHo7RD3+kN43//nymFGxBX+qZfbZWTCrDqPc0lxJgCjXc2OO5O9K8bpc1OgkZv9HeJ6DMUApHXqHMP14AH01Nhqr72ZgVLA8OJF4MrdrUL3TNTQGL3R31EI85ldWPozfh4XVbvp2WAW6mOijwU8GpI79qMt2/qGfvqeyeEQSZoH0VQFLWmWrmKbGCO4fAUBS1yhYQwGY6IzRHS2f4XiyPla6yScs/JbmjpcPRBUCabOtR+GsA1qsNGuLtGYLIgX3TAAALBTM8Ao0JgWetB+h1W0bkCRZumX68qYKyNfhEN8VcDZJpqpPT/pq4aPwfvttpE9gWjSPds+jlpgEZhn4vIK2T76x825rBnvUGZ8aYo24N7iQmu7yEu0pBzmByIn3i0J+16mIYPOU825/hrKruiU8o31w47y/xrsjHWZ4nPE3B6d8Q0jLVgrDN4E0VSmEucVkf/EZoM5dXvxIUCYHnSj6WUfcV9CBXC/PsKcKTp3Ass4E0o2OA4kqtNOx7Qlzdi9QgG4eyZWCP1N93+51OWQUhAmEO+8/hDE70nyEhZOUVdOU4fjTcAl+FEnr7++9vpVpj7lfQr0iblThg3+3OIdfSqxxhUb4sFzorKPShDa3rRSgG8z/hZbmv/FxhxoTPAbR0cX7oeFbuPZkw1VXzS6T7676fP+fDz7gU2wqQGXgGqyiGk55urF1xaKQ09FDmqEKImQZ09J9JM0R5ALPRoUaRT7v1JMT3dlZmYbLT2vk2c7EBfjnEflIHBMjURShh1G7lyLVZd++zGwqrBsphbHU/SiyrE1A8hZ83aHLkA3xcisABga4g4/PK2GwiAMEqx18if3II8ptpBveG+f5OFukO6mimqVcqfDkd49/dJQV8TN1gULZl9xcJ6iS3LSDlRGiDv1JI9RUjXHr+hTkZ854G9yfdYu4zGK/IKospe910rCmwTtfjTQC/Jy6TCoBYsiiDakP+QGYG1OWzlL9K1SKEK10Pgjddu/C+ahSSoNaiSobQbM02cRq9CzTGfAdCWNYHtkEI+XE+//PY1K0YT/7mScKV2x+t7Pr3dEjyjSYEchmASOy6tdHy/55Bgi7tDK/7/QQxMhHe2MUglo80ZQFEuB6HJtExUtbAd5JpD8sBRfSkOSkyLxKu80xVx64w8TCEMu2DRyYoqU1pixM27GgPAMf4uvioSeNWpcqiGPl+t8EIG0D+T1Cc14qPPbToC4ey/cb7SYp/NEmGgFDsvm1J2liMQ+Z3tC4ntHXlzNJgNSqCb91f+43CPOVLsEQUBvxWFA1wtS6+fa0/pH8YZofTOWshV3pM+1UkHTFoWWvIaYgM7lw/M6zt4ZPw4JLGEeLPh4yjYM74/HSZkHTcc4XbpSbe5EIoYCvg9NtI6L9g9XaU9B9CKpbJTsrVsxBM6JsTeQb8ISJM18oiEMrY0uFH+nFtPnSaubRFy8UmPo9ODprcog3XzSSLUPMFKTH1+uZUX93YTEz/vGYT+Rs9q1JHFg8OtUrNAAEyBTtSdp7iCU8OgjFgrAQeCuFHCX4nqFmp25CjFkKmN4a5JFYD0MB/BrJZis+DEaV8zVohtDp02TLwtiBtbdjSjH+H/Kh4qzP7ssF59zBGCm+uYs7ogFR5obI7GNJ//fbqdtIduqrHJByEZdkbKUvGwxOn67xBwp6vrMYyMWaFfyOgu0y4h0c6GhSKpFDuGnqAHheRpFttdO6zOrflbPxhyVIWBouRuy+w/ZhkFgJLbNQGKdfbpe1nNSYIzhAoObwczjFcQwZ8ELmfGyKrOn9BrBaSCXuG87xuRmfnNu0UMqljwnXSicDSAqv6dzhOieIYdaiR43wEa+IlR14bYUxASwc+XI7tgiw9mYKms6R+Zk93JjIffnesVqNy0Aw7Xos9hRNYZ1sHTooZSqqIz8P0Udj4G6uUgpggBhZtTNhY4tRowIPWNaBdGY99opQkBtxRHvgVbfWhXo5Qo++rvTZ9tTDNq69gpnJxZL58phXabLN95yrYJW0eY+FwkMB8nzQIKbMB1mJfR4LwgzWfL3VLYfrybJpwvraz6Xd6Q0WEL0x3ivB0mMK9YksqjxPB5oblvViGCBMsAv8Y77QmbGe5n7zWmLbMW/412p0A9f7CFivunnf0DiwDTRDGGiHgYnIvpgZhEArN/62MZCfcXLudMx9Ktc5r3AcruD6WOsGRNwLkHaX6AgECi6DZmFYf0eCKX3h0aAlKkMVCLHWv/B4go1GCR5ac0j259FmIR6CwbiNOEJJtBobnXBVOFmYoLwmup2cnI0FaWeOfgAv8ZjFxtI7H6kmwgHK4dDsUoO9MOMFvEHaavIK5YBijnKSYw8NWf9oznLUkfjK0J9w4kQtDzbnuvsu+ABDalod0IKIUdYn/zv9zYnLhNfke8GexWySNCXNrQMqiKBoAEz8+8Qu7HlIVetiI8zR4/svYlYjMNdXrU8RivMyC5BhG8cDaigtfuj7kSUN8yMsFY1wUJcYPD8cyn8BKMj383RQ2jYIHYwbMi9BksRUcUQNBcTzXLeMSnpuGK804UP6VhC4mfa98M1nFHdJWrl6io8B2qydA4CGKCh+9JUjbE6AGuyeQka6mbX90twjyg2WcDhAT6TAlMAy8if3U7x0TF8E4eBFeG/9xfZ/9wkE2Rv2l3IIwHViVGW51WRQEnUofKTOQY5Er4Qxai84QU//KRpXOQCPnqIwA9lIO9rxrdsOXVdLmaolMSHfjlXHiV6hT4iYulEwcea4/nt6l0qL8WGbWDZ/39UBP5g7fcX3R5vu+FRYrFngk3mlsS2mNcaqCf7RQ6nyvCv3KpUJDnCvV375b/MgJvnasNnTts6icQoMu5RxltRE81F9AC2MOlrulTEOH/uef+e4KirFcYFN3AO9K+kqNlHBIBVg56SbwOajM3SOW2DQEBNlwdLjDyX46PpFbJC848AzZGFgN5OAZngg+XNwt1JCqUIzrndicr6wU+fLcmECoxLkQhdT7pB0Egg3Rk5iA+pm13LjSHVCwfwSqiT2vBQDOIwCUpkrKeZ1wVyIAEIiN4XjQZpSOx1hJHGN+luWi12G1KG0q1k/FwPCSQxDdLrvXEKTYZkCbwlHpq+FB3ssABBoGZfSlKb72hvV8PH5uN5sAFs8ItRCouBYP8YTt91QKTeI7J8lcpRYInHDwh2ZbJBIJbIUx/BWWeQF1tXi1ReUv2BBwpAH93bOtuY/yU3R7D5u9VF3KV0vGdpE7F8fkEaai4WjPdSwK0ZkFAEohzphLAXgPRTAS37dsmGUph7kj9o1PIXugthQT4oQv0NGhouLcTwQC1NRV1acW6TI4xxZLvzZ13q+csITH/nIYfcVGIolmVp2rY3vJ2wrKgJ+rsQpLksZHRKikaQK6R91Dqwii6P8F9+7uLgTXFjp9fVsLJhUDd7TAoqdB7AWmRmTQzHUOqon+x5Tfklxmd5q/XTXpIUV6IIGCpRMVnDvBttZSKp4qlXlqU4ddYaFMt3c/xyk++HVhAM/vbWSbz1pMoyXnhXTQCKykHAt6RevAJ2PM91tGg4nL+lM62+ztvijduoABPN/h2AUlEOoOExjf0DE3OwhzsoLL3kmt8a7NvfpPdFh00MZjuD0boSitg0fAM2m8obGE8g47a3979MP31+udO5Ky6v+8Csf1QoauJgoQ0IEuTym7Xfn2LKliW8NTZhyEjkpnxWZPSl0j0SCfxUmIaaRPf/U1GGwu+72Lq3hKHOzCV+mUeucZB7aF9qFedCHLDLaCdEH2Ny84SCYuv/TZFAYnU5Xq3rgzwraqv3OH5bLFKEPbT70fYvBTBNx3whYrwehoekHZaEWflEIGHpYXC1SJ/h4rUDNS4EosspaUqL5xYLpHKbYvwHxlGvv6q8ynWdmVQKCkH8wQOVf+hdW6CsQxJndMkl55DupIuIEmdqnP8vPRCxa0rHxplEUcG603OqQhgvEglGtiQ8Md/uDVkexUpgdbgUcTVWKbmQOKgMRqoq22CNcths5LN+e+YJmXtqx9oWWH3QL/suUBflTSpQVsZ1aZ+tTkdLg2mMC4Srp7RLkvg4PwNEoJG9FmGHprvDIvxX/6QmroCCkDM3+8hCKeOliUqDvROqQa9aNM1Ojx0D0nRbFsM3pINYr00eqnhYzOPrxHS2ylpEr52u0z8nkZHH5IfNMMIRxWe++to60oAg+R4FTcWsDf86yt0dcsPsjPSQTVE8DlQZUr/T64wLZgrhCZwkb+ljKJNq7Ya/y340OLbqH5XPGVuZUg1AjthjTJLAETRXiEsZExsjUAIPU5NfHjWnkdYZP+zMB2pSmSZrDJyZJf7Q9qn1pTEaNCUpmujfbmkDBWJyz1t3E0xhrbXzuzKpLPQomjnrrg1oFZGfHs6ZfA7v3byuCgB6f1QPKQ1GIBbAd133y6uYBidu3LWeJExMBGL9btqyEKxmACP/AZbsqMuLw7t3Th3cyLpTCw0+9e9jrYKSv6TPL/Pxr/Hy2P/wDAVUs1PZarofxTVKErKQ4ZUurjDC7UeJE/+PWspLKhWo4msac/uHTNAOo2wbIkH0conP3twatr//ExCzeTgN03rVhMPuOz5W+HqdeYhCAmHd8LoNx7WM/X/kkOa7sYEywNbi8XOQ3kuMiG6e21QJxh/x+ssSRcHwy3mBBuwBexLTIANrOVAK0NTZB8JnYYOZhhcec+mc+mSvywMyKIRf3EYZYIps2XjoXpo4pk9fYOaAuGb9YdbClVmCruFVPyE6heVjLWvRyzjVpRULQIJK5r1Mvkiyf2JIItlJxuVnWg92c8u5NKbDbPA1QMg79T6ooZwQvtZpBA2TIH29mgntOi/0aAlEodWCQmJXOyictPmsfk7oiR24AQROcl2GBkd7lCJGrerB8CDjpq6h0etPlBwgkx+4sQlPiIiLi2IJBPjX/guHtDBQhP9Xaq5j6QywumpidYtKiUP9n47qvWLOqmBj+Vi+v6+pFXZZwi8d8/Lks0KrknToRbGLTMJSPq90Zf7nvrXB3E18qbz2+Nem6bCFNz8GpCSgLX51JEUjvlwR8C6YheMR5cRHGe3IyNKUsBGDXp+C5WhAKGXIE30gIcNzqVZifIVf1JG25LsWQxsmA0RMxmhF8i/o0jv5BzDi0WRJDoVa05SPXQwVN0a09Pmvdv6bmpKHldwzpTgvZ3eksGCyh6dFUlGzKJAI90RwmOsuWp+ugPqABgtSeI1g924TrzMS3TzzjRxMhtc9rmcV6V0LzjS0ux4V7/i0hQD6vWK5tMD2sCiskqvhDROhOu/sbpsG1xIFRHSqUWDKIwaNXBevXww24ZM3UjR6mPD7YDTWNW3b2vulWmk2V9QSVj1RKNImK0TBTKOtzr0HOOZZ7AAqBgHhnHOVDJ8L9nUAN92Ae4cfAw3iy7cXwuDh9F48bf1Kw9nLMGLO9i+x6t2rY2PS9Yg4jKtCZHPgDeK8aAm5q/qzBP9Qu/vqT5pMcLrv8bMk+/TpjuVXzN0CqeN6Cyn9xHt7482kQxKBOyyU/YPQdyqA+MVEpVqQYrGLU5afNKddMM5eg5RtI0GsKrNyxC4WlAbNFKJsxqAA/60L/8/AHGCTHFdHEO8sOwkR60TNXh9yR3AxQSAPN0chSyUvsgiovpq+AH5c7A4r4FnerjdyQe4N8EUqik8EtjiXRFnW1MZOyuhlG0zBvlNR1KeSixrjn4gnD9xk433VcVegSCnnDu1rHrryhdEeGc41/90Px/IZ9QDSpFFZc2M0uN4QuBC6Qo5g1tpYoFxdVOkBWKfkLGmskLjMH3ngDIcNIQwynKKFr7rVD0kiMQnyQ4IOxlGvdzXyCW3rdqRi1TDf6KPFOpukzQBaARAfDUS4egXtEB+tvfmMzZ7tLfEW5WoxaQINS9nlCp+tB8DLFydQmUHRJDDMRmUsSRaEwu2GNEgS8cBJOEovA9agvm3rGPNpT/oTpLdeuYxP2LmHtQLbh83sKJvWtrQ+ljMyV7xDCv+yUMVbotM96TAb2wmvLdO+9OOckQQxlqjZRsND1RraKDSgIc0hwasaeRCyIMSnt8n1U2toB3z4zvu4+yUdngB5YNI72sh/HJj0wAcSK4lzVxx2pS9NTmZYZtk8Ysqv8z2iSgPcQKaIGZhEi6Wa8JQqmxLFgF3ke9qufZ0/jaj7sAcQxSVVmNpt0ELZpvWtJkDflWeZgXdzpOYpt3ZaFO/fPHeAJhbmu/3C7pcgtikDRHeTADc3EK01XjivrjbvtkWoyeMrGz9y8pW6pHMSZ3LP1Pn8sSxm8da+Scl73cPYNd92BZ+EgExTgcoL1eH7So6YiMqFv2M44+dJFLDvXTHwdP3JO6CnKNveNCvX3Q0y2E+Rktd9cv41GTloWPPagscjBy+PhiPs2rjmf0Z7fqFG1NQKVGQczeUeqL6Q6po2b/kYYxJuyOvUfjwsxR+sARoBfbuT7DPgyLBUV6XKa6i0J443O1aTtTb9DBqf/6V/tZPIZvh+3AUwaVZQZAxidWE7E3tDVAoFJfb3ITeyv/UKQs54XEuvnRhjzqqr+dz/7zAkTfqOh2rmNTe01fp9Oyiw+rLz6l3O+lJwenDF9BlhGwMJvEYhsAYu9DOk7R0SufsR40OzhYxeSdDZeVNm3+dAIpSOHehmfHptEkhLClnHUYl1L//T1XQoeyx64dKNxV1rL70oWlm17DCWf0/qvMTA0uNb0twe/xAuhwwC0MdUeu4tSdGtMs76GFPV8B+wGs6v2t0ETyBRMQkVW0FR7TuohjfukCDbe2BHPmDem+4nkHnhD9+PJ80MhWQUna4bFw5qX1pkFxmbC6L8BbeOo92SM1xhuJ2hMztO6Zzgi+xL2WmBu02SGfMDSWAWRYqZ2QAqHddVOpJVF+Ej1cxozBdoMGV5tykfuvuSq4HRPL4EjahxERZhgqDVDDk1nJS0D/QsCj/jAoRxqb0iuMoJor2XxfLK2DbDk7SByDxgp/+/BFBVO1LftkO1sS1QPM8pPYEqIn7Wu7kwdTCimD+V81+LJIM6fn9J0PVjeuBek4DJOCEfjYR9Ve5YQvYSaaa9AV8c/BvsP7ezzVsX2nlZVz4B+uarVw9uapLMYaZJqy9UZaouldZggi+0e0Z1VKMmjoCrNVg/C53ZBEuq70GcoFWrx+cqG0bvz7vPsxXcRZiR/M71Zb6Pw4NJIybkq/HjRDVKUbR+9cDkHfDxVot1F+Kx/H/HFr4QB03S3jPOnWTMv12hhItOtJbG/xS9IdACBxlAdQHcVDvgX/u4W2uJ6vxgYC5xqoc1iNJxz5dydkOyWalZmrp/KQ6UR1dq8JIKPRf2g88sd+yQTnEMqQ/ESsR6fFbdsEoGnOeZFLjGFy+x9hGJ7NC3KC7kXGGIQlr1iyCx1IyJZ2ajLL8mk02D/XfwluwNLlD+37Md1LE5Wo8T0+yWwGUDOznD6J9fwpdPlCWiD8pQd8EEl8Jt2rCnVReMhZQCYi5EdhrM9GRAy6xstV2W7xHP47hAOmt1RTm/NPFFc0PkU5xbM4cpdU2DaB0qH31t/vbUxCxKZaCxdlZoJkukw6G2ZAV3LW2k2IyaMemQTPh41trIM7+9BBndZ9PFaj256HFP65EN17p+tyNkSHm2moYWg6q3oSwyZv/bGoCfZoybSIU1V2OR3uGCIFwTxyjpw3ZyYc33QMsxfmxNqV76WLr/lunqCu+ck+5p29si52KwD4CrSskCNDgzESNBpDqlOCkNQxg8AGedfcDIm7DqIGJm6GYIx5T2hEB0OylB8kAVk1qnC9S8tqcJm2uGUhCw1qTDFEzJmumGcZIpHTci+O8lbrcYneOvpQRxQJgLEwkQtMF7N+tfUxRxARLGYbuBkb+plo1shLrwir7PcMlUTqAEPCxKB1QtR0xpkjuFYP13QI5+bL/OUeZwXtkh9ZPHAVtZR+e0miurs4EruypqxMIDXrNTyt/IY340P6iE3h0Q/catMnBbfgqgBhYpJZ9RWzgWGEDD/koHmkp8D1GeNfnwsTa8jQ2+eLq6tUuTSCT71xxhBylbDByU88lfBCHN5yCwnPjRj9N9gHsS20cs3Zey4NfTPpLyCoWdRFA91HC4jrlhRjDcQ2zuDPP9BURmfwet+1P7SEV1FeeT7mS5CIPpVAp4/iSmiXVi9aa8qyxAvGOyTaIjuNDn0nGt4lV9/MANPxTc/y8Ep01L2LHRHwTMjdntIx4uhSkk6B1u8SNOM2npcAsPRVpdOluqCtU5sJsn58WFgw8yliPp22U1x3lbDH0tjoCJFyvLOnfen9AHSrpOrgYiUke2sUGp85zrwzX1faRlJMY4XtYPZ7biWQr2MyKOm52cRImkIbyz6uQO99rpxS1BH2xbUGRAgV8jg3G+uSM4jiclPfThKx2myysMdCXVaKs+gnck55Ok88go5kirpLr+uQOmNMHGJyyiPhP6JbemTU8RjB0n94mybxLvysk/kmSmcKPPfyfzIDm/vCBlfRJahrVY/1Zb6umo8E0mnJd72bzx/X8kdYwvDGk0xZfxvLaXupqAhQOw+xlG2SscbzLL9AjGbr+PqcQdeXh1kYPtz69/wS5YArniLwS0swGyoxZrgzAC0VY06F3TlfZ9mR2GSNbrbFP08CNGkOm2QCwV1w3KDo0d8gCSTFaCXUXLyhX4DzRQ9gTPW7/a8aVSaz7ptKy5nZesUbi+HFv1dCqWXUuN3+WIfdQfvQEAR/x+7tdb2KoPKdVXgmMeFYja//bezUdAOFsRwZKKZ0oz3qwgF9bFtBGjsg0h7N29gfCdbGfB6sunjYlbK4HueX4hGPi7L24oa8fniIeCyRx9V2Xt1XUsm0IyBIksy3qft8v9B/VMWuStrIQKZ0opqmJGQqCTfrwx03qc7n+R5Uy1c5tNb0+CO7FrLKr+eJfR2j3o3rhJ8pXK06IzZrT0om+1TQmZJZASsWyoESppLcVdMVkyEsHu19eoSPQfpKmxJQ9qXJ5Yv4In8MuyjJdc8GN8LOddSx5f+ugYG3nwNHxnDhKTO+NdBmVFfGgVo7+o9kgdMSvq1AeGBBGJd9e5jvS1+stN98spiwiBTWUFcV/3ILuUPBFLWuUEPvlFMS2ad1mqB1OQNUbQx76aVAcf8TQpSZfdsxU4e5hDDacYnV70o+gnU2NXJvbtwLOHKa0s4u/GAomTnZB1cIpFsiFZhSOFoeR8gEbOAgdven7bJWMsn7l5/d+kozTLZyTgvx6xozpV7IhDXtASiyudtPJ5oiIwYoGh2Q8wF+tcpVP0ZgfSVnv80lBfP6NGs7tGavx0htpaslBbzCrsjpKRJAB+5ddV2+qqN6SoOWtSPi5VmTAIJVrXZ/kWFuowX6Id4ezFc6TYgukakqz+L4bo5ADcaX1CqNdnAppmelsOC6/JuxCE2VWCYHe87ZX8zswP4G2QHPRYBGmFBlxn8ZPkxdvAeD2fzO7ZPcB7OEggFSzocxy6nsRIxtsprhJf07KE4oQserf0B4S5PSOxrfbhVc9jfy/Xs/D59PsgSWBZQGiA6pRrKs0+sSKpi0ZHIfRmoLULR2eGS1Tl0mzRU4sozlcTVV/nlVLdB2cYaHDcLNIPoOWfAZTfOpm0MHnRxx5qqvk7OCUj9wfHuzUP+hMlf2UUmvBnQ1iZoJTQ0EsyS87GyttxBgF+9mhfJOHE6kaLwxzAcJVmzUahFhc+BFF1Nm1sr39/7hEMTtNqUspP7whkBgFMLCdVslVZxZyW6TO30mryd5VCOxE0tzozvxZ7yhXzjM+FpdSIuJyehPABHV64rgn2zBD920ujqL1BGZQCc2fXDDihqeEiTkgiZClTOWgQ4RrzT1sbHF/jiA2yZ6wc9j3bFcSEparpSnGMzySpXY3HByPR6Xde0qOzf0vtcf74JKs2iBXCXV6/Vae/jZ/OUNLjVW+QSbZEPijxYPF0yzzIlCtV52w+U5JatE6lwgZHgtV8HWhV7cU465MibqWd+ZCp1CWXdSLBvj5XgV0VMOGMXEl+Cy7WEIPxRLOUGc5cDLGgEJCjus+gEguMSvnMDGUTX8HTRNMNIg7oHLkbqTY/xhEVGc9bqZDXdQU/7azniKTgjNiFioW8aXIBiJNryW+ohKcZt2P5TDBaEn5mKT8LvrZ1A2gAaEE1p8yySt9qTBvDVlhZiQc6NuQSILS5FznjQa9cWEybJWglWqarkEblEsDrZIdwQTki2XMfsLL74JgIk8mp7p/ECO+fHW6cIjFn7iBjghah9v8dnU+j3Be4gJeO1P8muHUQfxia8eDqiBhO4oj973Olr5bKrX22xvr8LvepNJ+3wn7ETUzm2663g/RydKtzsT2Uc95F1bXjRbxsnSZ/xcQt2m3DPx7mvUOZW+mzLQmbybpKX6QgntoivC7UbauY68US8D3w3rETeQoDOG+0FTyVs/lNhjIfs2n3pM18fYBKLWSTDaUYL96DMDGTNoLesmpbzCM2XSl9w46aRlLy6oGUmBWQpM+q1amILZw9XbdG19B/m4vOLfyhIZ7AxA3ogHR6DL93GlijvsACKlvSnCGaY6tAt50Rx6reOZ4v8bHEDKlLvqQYrqILE2DTj45LBbRHIw8lk3fl+KVW4BdTelmuQZ9TiVpGPso+jPW9UWmJGwoChoXNUiONtG1r4gnG3LmrqPOaiDdt7RXXWMiVUtgxEYHCu4fHEiXD5rjINhZurC7jDX32o2D7/0EUczsato0EKrM2tAPYUi4vMKpinRJRT0GIOjsv/M1CYy00kjE4878teNvS5vTPmiC7xrdpCoLlK8Cbk2SlBUdl1g9vy9/R6LxiGB4/ieIIK2olAUCWLDJFz1tFMIuN4RBpmR7bbtrcfaIb8BnzwwMkU9p/XjR8H11HR7CTr/ZgdUYoknw98dWdBWVbZSyK4qKOHCa7zyjUwkxyUhEGQaszk40qaMxFTQUruMdpbpN1hQdcjO7PCBlEhEPJ1gt3T/VOKkV7A1PJDA4OlZ77EcLJP0eM6dO9LrdxgsRPyvmC5GayraR9bu+Y6N3m0KSgLYAUkXD74r1oVwQg8q73FgsSyFiROeJA4ISHL6bFaxssXXFpBl+f4SjDvgdssb/WyKASXH22OJ6CWDrIaX8GXUcLkzGoYft05hdjrK5ow8RpXXDj1LPsxeVJweaVpcMIwItRWSEzUew0fZSPvT6o306Ei+HnSZfaCxhVsfUeixG3siT559M0aA6fnp/VrZOrMuZDHma5xeE1MUzxUUhH7RrhoxjkfqkHM5VoV/oZa462i1OoBeJIzjaPJXhjVHaKl0SOPXSHyUIA6Lh9+7EQd/+Dadk4L/vza9G5P10rYxIZidnsbL1JFJH2e4zlq0zqsI2qVSsvS1Mu2cnncGv4RfxYwDc3yFj5zd8h+iPQGAWvL/GMANQFpj0pJc/zG1jblmidJuXXmx07bknfamxpANdKqUC5ztNBNChZQ6qoCvwP75XmXl40++qwRXAI68CB1DZXcv64hP3AqksIzBEIT9D6NhD9Tq50puAYWTEJwwoDAO21PY9B0es+Z1B3fgtO/vbFc9n3DSl9WwFJxY1/P1rzRlQNqijwl6eyKdf6eb4OfDtMYJ8IR0gPxIweHTyrHgKtMy6b1ZzoBCWlm3m7z15YdwOFprG/GtsHYIv8RFvCsc1bChc9eL6hx13TkXzI6UU+StzZludhh+pmfL6f7rSDi7kEB3M3B+H5OOICXXP7wKJkB8FdmU1PwQ747mdxh9dcUQ3P6Fjl6mODrMTT2Oi4/EsRX6/VGa7UMehHQ2DjxSoyynvlGyVVmnOWiCKlg5wn48CdTU+zkLNgpkM3EP7p8xmTO6XXQcEjrQWiB2kRAS7B7lGCUbEdcrlGRuC/yE47p9TMNTrpB1el5PYhAJWEhkFq4dbvNMj99c/DGsB6XZtmKHqp//mh+XRpCK1RBzJHo1atDWzSa5op6eoPB4klH4VvX1pN90Cl3+grnHML3ACmwMfnV33Fp0gvaMeHPQhORyPj8gpfWLB5IO5cSsG1bDOdeBVVTZUE1N6jB7Xn9qb3C3xgvYMX2v7VTLPzDxFWlm7/b/Lp8PcAvIxC6XUKYXEBLPCSM/ipByplobmsSH23lFTFij1SHdtsCFEvLcWvK3PS/Isv1mgHYJhgu8+AXMg3+ZGFunZodaDbxNK42yiTsV80XUp/sTKYlp2sIHdlmMcLqvldQfqkqxMJ/dD9ZvUvZ1qBY5/X0JqkG0jlQ7qotPnAH7OqJqHNOlBMjJt5ujEqjsiCxt8+8gGzuAa6pMgqKtTk4YA4tjYVXyWB+O/FgKRUAoZ5QZ9MltOAfQtWq8SgBdWbhA8GS+H+yix6CSe7627vT6RqrxN6HQCR/pVglQbR0XMP6S8eQk+c0HgUG8Xeiw20fr9VceLzL1E6mB+zmKEFzmJfV8bAWzQDqIJkIo48fe8j58A6fwjmo0rrak9QAnnHRiD9Z8y9d2KWokf2jJMwpZUg3zE+VlFI3floTn2kze27VHGWBl9PBQ/gltC3DndtXInPYq11hDaw1IW4RJalq5/M9CMX81GIktf6d7bBcsNx+Yp+BZLbWWNClpqvqvhL/euK00tN3ekU9FtUZW/FkFo9V+GXKCBOfTaQa8Fue5Ms8AQMu79I6c1PyxRl9buVUSxSFxuHvEJuCPh3zac78YYpKCereN/f93nDvDvQvfuoO9i8wXaDEgki6fb6/Pu3fyIf1nBXWSRkezBxTaS0984cP9SWBinp53TOWQmrgTuU9VjacheLDF+z27UR4pAPWblS30BTsFtx7/CdDwi9dB4ibdGKY0bBKEeSfLtle5QkIpsq+2qHr55Y0ETljyhtI0lruW0Dx/FrqKnqhRIXeESIHuWpHqL1avcFZI378EhUVfWeXXL/6bmyuCcLjNfDrEfNGOJux61u2c+ySOe/oRn0ILh1JNc6ado4nNIOyFyyIZevcy7IuJY1xavQ57y4nS/EU5XX0UT7p0DNgxqXp2Uzqkr7PEjexoZLwtzNvdlPAQmTA95xglDQ6I9WWwa1MrunSA+Jt6AFE0EqUeIlRr0eIY1jMl6llZnfnY0K1m2m7wKVmPXElnNcIVZWXcMz+Kc/RYCs47pCEAOC5PIsId5DZQaeL9Z/89cXZVQKiBqrz9Z1KJDsz8f7L5VdG+3o0nF0M2tKZ4oGTitYOyDcFskIX8fJw2a6suf69Xyy+DlkymdNubmcWarQvY7xYx16FFYqLymPHobWMXKPkpuehlUsQvF9zQL4VqM7O6TGDPFRrgUtmWYsymnnh1bMTzmiF2PHquQIrbkQkJTUyI4dgl0t8GNBslIcP/Oe9F5t359CZlhPjbSAX0FcLPC6QN6HDPm4Hl8yLejNHU/8T3T2TchMBbGTLZtg0E3x7tzv4uMbTwSRUte/dWQH6xKmZgHpL2s5iGAwyfPAfOxzVjDLRdgSSPXKf5T9Q4g6V+RJtedThU/HQVWQNrEUeamTPWXUsy3uURTkFTWkvYk7ed7mI1R4KRuDkb4J9mRBXQifYWwk0zSf3aTGu/3uhF2DyuxK9c8iDlJU6jHC5FcOe1+bJ9wkySRWBiDfcE8gycYcjV85InAu+PUt3ZoW9eslkL+kK8R5KLxg0ECV8M83LMaeW57bn2UYXKdiOZG3EChyXp4Cgw7oSkJUzW6ss6FF1hZP351mRykIThy0diZ06PoWEFZget531N4uCAenITotBT8qk2kIGplud10WHXEVcISwwJT2/snSVXPbChzD0Quq2VflK/Zje+VVwulM0oI/5Mh5COoDtwkJfg9AB/wUqXd5MPiDNdM/3u+Le3yVLQrzTOEvIsCnNtjNL6RdKE4QIJXARMl1qI8yP013DhqrgHWYpvQruCVLF2yGLdfpuCSgYn482a/fF26X6wIMnIg0/rGFzzp9KWRXWBnmcix3xGUovJ+RrKAb36eeIIaxbc8r90C/ylY1IwRpZYYgTKX7zPV4jNXLJLliFpd0IRJRpGeT7SNDgy394k+84d5JkpDfqzZTlJphtZb3jT5jpAZvCG0ksy2SmRDZqG+tbG6Ice7Gya46yyOBmc2xaJeOpC23q5dXD6R6IvQpIBFVCOPb2AFxeOLuhdVTcinCLjxYUV5mFNXp9/VX21FzdQAh5+GLHfoTvcodpcYltoy5vuyZS3w0YqS6x+MJdjRisiOZJVwfxDokuRGhmp2Y3FXi9loGAoK4tn/B3oB6S/St9eMofR6Lj4YWLMHsCOXolIJtSyBhbDddOmAz232B0+CNcpTj+cLPV5QG21xpGXm1/Rh/EfgVxcx6ERTCohqvgTx/iUwNuo3XfVtnDYnPuRlHe2VhDHphEgTtPl+3dFNOyxgDf1zYRGnOPArtwpaeHtqcRryEAodMGMEGpyvW93eGTkeRuqJq4z6BlIf6YJwehN2tYQRx2RuMjsYJeGDouBdGZxry0Oft3PZHUx2QiekMVoKJAFqdFA/7HjN73eYqeuysBQ7xXzCfoeN3IVxIbmBJPHyB0jU3MO12X+Ge/SElNJShHW4UxGnSKcHCDTDy6RW+JUTRiFJfvxmKguWV4MvqhcH9P5LgUG1KXa62q0RVDhLtxaGAdkvr36edfovY9Iv3HJ3/l8KlV4UxkIaWVNMf7/Dv4XQ1b1xgZx65/2BUVB9+WK385sX/P5OW5m77WIcQydVBKEXV7h7MArROwMlG8TwSRruAEI6hi5BBjrOMzJx/9XLqw+wemgmjU4LHW9mxPrWuehsFENM/3aboxkxdkfeQ4Nt+BiSENRI2QnSsb4jm8YDGEqTdrvHpazKrBx75e4KPx58VNawhFJeu4CuBPONB/3nbkmaGqdTF1A6Hs4h8PJo2ssjLZq8CvYScZlU04b4fRoBeSRkN4f6sV8pemUu+pWEWLlI6WUuF+1GDzAl+uSQBpw5uY6v218OtAL++ardlXscmAT26lhhIxsWspnMX+zur47sBhvr6CzkIGNL7C8fJSG+1fgyBIuEvKHTNYuSIYOmiq27ePKZcHz06yy1dGkWfwl5Uh0eUMnubxRedO0a5Hd0tNpNt3NK3CDaoc5+X9LLCYQ5gJgDriGwweQ4waBBf+49Z4mIHq7y8MgtbIEC51IMRonm0LHZDvkUsso7I+SghYr40eKP9dfX7pshQiaueXPiANr8PEI6jV03xJ+z07YAGT6GBby+IENmac+nfdjAwBH6wZodjrMvVF+8TwbI5quCx9HEXjG13FqTeiCAyvu4+cUbXIP/n/U1HmrJdVP5teB3aJujjfRO9BOwdk7gLl/4x5OPuEJV8QPRkQKxT+jVGFLzlqheQ/9ZruOH50bKc1QaVmPOyJwHe0LqtpDv3QLafIN6rS2tH+EYYcfd83REChr5zNOGuBkWjY1giP3hI0s14VIfXsVOUagkebNhCtvRpUVTzxyLV8ACA+S0BhETV8BD2E9i7xPHALtRVOr1zFzvV6CK779X+QN3Q3xsCOdKjv7rtw8kuNWPXxv7MTn7h5hXbOQqykFN9Er43ta6DRwNNcf+vW8gKMB5eZk7dWcqP7AQNvVc3L55mkagaC6rtHn086Ftw1YQhd8Y97VbnmIoAFCjIbzNXQp+wUqFzyw+sGiPWzWNBDof3s5CbJ++U4ihqjdQiDmylbWAkt9fXF4dUip4tr64MjgTBIHqEvNU9r/e5dq/eX4C0vpofBmqfHWd1wTS+iMRkGy3AUaHR5LP2x4PffulccuTB/g/B/K6XHXZC00f4vvqk2DbdUz1u1+AW3FwckMIMAePUgjKrn0aN/VQAJgE8I1UXDKDdQleB9y9FlrPwr05/WvOL6hkRN4JcQ6GNo/jc/L5IoV04AZBFwJ9f/g/QBIAw2KmGBQ6SacUJygCNW5yBQnihnzPzZOujq4UBUVm7uduxxyJneFFh2jkSK309VK3rNtp7MTjI7cfDaPRWtwQ8X99ETSejpijlH72NfgxGnSm4Fp4nhr/wf4FagbM49g1EeJUSxrrWHTgVyPnKradXy/lHlLNCcXV98w/4mkUmLx4aELlNM9zPXvpRmUs6WCUDhMdvaW4vc+ONgQXulbbn3P4StkfgKmRoTw5jxCCeUh1grRM4CEULxgq5Kis+6kTLtlndzCbZ2HUYF6NU06OVaNmUyrCBrnFQbJY64ZuJyRKD6CVqD2bkgBxHDtcX1ktwTRVB1d3s5A3TL659r4revJfV9oAAv5ge6B9Q1qyYKeN5gcNtP/gWOREsoc/mzt+vxLyciyg4aeokMATp/2Ltj/oaMQvZCSSEQMTJbt84fbObHyIOLjHqf50Fdzv5vnnBsRDrqoTV59GmhTSD6p6f0yO8ZmPGFO3XQ1jURFJzQ/ggUkc5yTa2UsMJjDpWphwD3Hsm6y/3SuxZ4oUszyK6AT0HAcJtl5wfIsS3iNH8Lwc4UjHLkC2bF37CXSGJASwUEwvfywyu3JDtCAxCheoU+zFMRWgFNMoA4ih/aROJ27hXl8/8O+0d/FtPtDGtWvPMbhERNggojCj68iwtuClMFlvRbFtIjeXmqluuorZ2kp8rIO52V89x0ZSS+Q0kD0IZSar1OdwdtgOmxGgiHhr6g/ZUN9oWvTSU8BQ2gnvsXnkDQmOvK1bJWQMPScWvhRna4SqjUWR0uV3Zl2bXeA3h5XpMfglTaFKZm6uEsVDkrv+JRjjNZ5zKeXUPEhfY8O9XWkaISpST60sBUtYZbIXUdOiHfO4vWkjef3u/fh3++0OGOTuytuCSFRiyl8JGBNjd9aLAemdrXtgVrelktZplFxzP6Ng1GXu523sCGKLgu34Ezokd3qFSC92qILjLE7xvBCcP8U4zL9WG72b96nITxRBhjUJbIImMhMCaHF4JzxD7r+mpl+eQadN7QpsRB87hxiwQM7i0AA/csg5OuqwtpYvWRPd+nR5lZMP8n2zjgl3ub7zBxX9Zv6cuvlc21ux3CUXBvvNQbJYBTnY1WxZI1nQehH6W4BeaHtA6rbmUQrPnjIGw9F77JvR0XfTJTD3fJ+j86dhQWGt5aZgFBFvNyiODQaAaobK9Ra7HbYUBAe4GFsfW0vQOo0kkZtNjpfUGK35lM8HvULHqwYueMr7CmtuYX7O43xjX1I0g73uPDGM8DQh+E97y7CDhDX6ektYMDV/npVoosd0j8ej8rfv553lX5/szaE1O58ImVWfW1Y2VtqxsR3NNn2ckBTsazrCr3WKs2Wt+YX8Z8KSXpKFWxdT1Wi0HRGyqujZkv4CdWilepsEQXbQJYCwEzJc5ZAoTdpjLiFFyPaVlYAJICFSklTRlGn2JkCa/T0mIT4Vy3WbPmoMvdLJi3gpzyHhfdI8VjHv3BrdRexdWxirIqtX4VK9Fqee1IRwKv2e/9i9AED5fACUgLdCpKz57A6k7IuWXrVcsM2KtFhHUsoQ/DjgIBbr75jos6prPzkkicJbPGzbCmruCQQrACFfXLw/VjITP70SYFrJH+DedUv0TnNa8cZG9Kxy3kxXydzc433uMmUyedUYKcQGV+DZQkM1h266k9/s8ckvnd7e+In4JvYkz76AQQw5hSlmH0C3TWIlYL4Bs1B10FQasQRJ57ZN+y32w3auUgmmxQRJlNqhQuga9wBT5ZIbK53zpPDnVJpWueYVSZmEFJ4cSaOYYnXtWFQi2H/fBJB1YXGETKEHMgE23BX+qMoEezgb4LIlyNdh0szsFOu6KPz7N9/ZCSbE3LQKavrgQb5qVVRyLNF3xnYGgFBEssof8vlNNHOpr6UWwpNyKIx1Y69uibBaSieniwrJF9+GTjnnBAH5K9ryPRbv7tXdtXhhRyHf9yFm21VXHz+V8WlwOaEahcI0t2YR33cQZNgkWZ65RqV4xYll44QYqWbcg58DBDV82A2GWC2q6lMwKCxSFghd6/vtfkXqnjQRDUJPWsq75BtytUBmEqMOldQR0EiE3AkhzUiGCH+WYoP8LVwLOsCGa4RGvp48LpTqj+QU4RBnEApJQ5O+BvA8yzbylT48W4uLlR7JD2xL1ezfnT8j/VChKvFKB+5Al1ClzqIIrWrLDUENsdonDmgSPw9d5iLuIjsHYl9nVH85AjlJKWFH+E8zk40ogNY9qeSLipM5eakfcU0D1SOl1D2xEwVetVJK1KV0HJTSyCC9kY4mAcyJGvsrDU+6lppHB3RPlHvzWg8t6ccvS7bW+zse1B16/7FxArhIBNtb9EN7dYFBFUEjCaD34XWTo8DAioBQAMSRVDalLBDUoA2VoyPYC9UcIbmAVzu2er16pFWRF67NuJujLFr03dE5HkB2yww4bju9f4ITQ9BvPXmCDKTkqlO904jM7O/LwcsQEr0YSoEYM57RLV2wpucPxVULnC9otgXnFmT5h1SGvYt/sFfwbL6L+IHWpeTJeZyIhikxIzMZAfvBghuQcgIDIxIpZm2wjwnb8YHOdhpwwmBECrjb/rDMmBAXiHcdinWh5aeHmCxCRmNqoW9QXcriHGm74zRjhVg9Tbsmaw9khggj6oAQFkUvyk3PoWHPw7oxt1eJQUshIFZsh7pHdgdqU4QrpU0DoP/hMShm5OT+jNrK4tgVqurL6gDP0WHyP/f8CldWgBFxl+CPpbJyaghGpWmj9N1XutvCQN88rdR5GmF9F8xBUVaWLMAhumCVUdM+GEKhWVQg+hj3csCaT2yeKiGFq/MUZL0yJYVd2UgToYXwwm9nxRcppB93vyaamqjKrUrv4bhq5ovhBDB1PDkGWZbcecr6IuvVIIeLZPxnwgeKNvgWB/Dl6dkab7QgnMyS7g+umSeS5VSz2vBPTO+qZVr7x1SdDtVGEMZ9vK4yJHLsIijSSeSYCMICYUpx091JK/JvWEbZJUE7mKF7nEMY6YiEyojzr2wvVzkIbjcFqAOe2FpUGwVpxR2xvSbJjS2XxxYS9MgywsNul+v+efeDCRNXAur1J4ALsU/C0lDR/Iki9mdqrAosrbmp1QVIhAgjexgruheGLFOH1SynwMzI3e2ZkJz0s6KRQWBly5NchfYcWZT/bStZKgbp9h4Ua83Phtg4EbFsW8BayOkk8f4XUJuofEr6Pb2aEtrxqGADD36wAN3bQeXVpB6CtOdpzOV0um1RAPHyy43z/TFY2oDHPStsYEfLypQyEEUpz6Wd8zObTgYOFPL5J0cC14R5HUWIzlaXfEelEjJYDSaypUDJeH37V5TGdPv8zM1U6FmRH4m0KnpMNKkUFJKVPahz6DmSO3dS3FvOX5e3Zb7iHwoaSn8geapVYBfi2CY523wPB3qT+K650R2bQVfthmRtCSxoaVCNnL9R02I/x7pPL17JSI56RIJiYKParUc2Q2/+lD70tZyhnmBwoEPQhsoLhTR6YnvFn2S7wDRsXZKHbWI1eGI2Ur2xlxpJqRT70U6hgZW6IRQvSjmRS31kehfYR/f6hEOo7HXq99LpHC5f/0EfiV9FqpaHa6dDD4dQkd5Lt1Ux7oC97e1OqN/8fkoUoztlMQKdbUhLO/4ztP7ExZCRUZoUG7S9F0Jn2Cgyg6yLkZirfBO/vXiD+jxZQ9Ah8ODZDKHsVW/sNsV5GCWpELkY5iSn24L6MAAcst1rJnrOynrsu4KtyX95YdsZ1YSzDvLJxzEFxAjtJUm6+spGm1PyCk5YLPuj+ckJ+vPMAA67VgRUv99e2D1FgkoSQjGx9bgdQkX0rh5Jz48avGiGgr/dhr8eBSwlafvnq7pTj4NWwlEi75i4Xb9QBcnFNUHMxwkbAoe3PE3oHMxnMDpV9m2J+RL1x2gL1gwmYLTQgekgim98R3ze7xn3DIx5jA5V4cOrPo5PLCsMFM8sf3MJedqDTSnWXCkszDiYz0lU52puvAIDdwW/jAd99MKKSgMk8aTBtUULRA17qzYXNQ1jYGof1KPN9w9trhb3QN3haXhRnE8r8MMdz2pjmweUrloVCcUbn02SNUuTQ7cwavmeS73JTcWy+cHCrOHljBlNrcbSmwuAHA84JYN02H7F4JmmeXr50pgWhzJDFzCUnXD1VYpjQNKYP8jQxnjrboXsh1ECGzGKQA8qJBZy+DpTHeRkbVh3ZYSdXLEwF5Gj+i8CTM3CI6IADPitnFcQhdyfn1wCltqDJRTvJRaymreK+/e/MZkjFffLJjxnEhxHcZJG07Okl+JI8tVmCsduDCCzuoI1JkbERTDazSkPdYxT7nBKzKeG6fQ/1tV9X7FNGrXgNmPAjtXTvRm0E8OnOB2Ym4gCMC1Ik1kOHODUnWvq9/GqfrHHGDMI2Cag7PzsxJ0fCEmEHgegw9PgT/nIDJP5hzydBwYWAR7h0F3cRXM9FvEGkQZCWhphRK+vLdKKGXftW3F3BCjqe6Nax72ZdeJ2pmlffgh0dFkfCB3vpPNN7VExNjLnCB139Gs2iPXOeqqMSUqBETsuc40uPfiD5Kg6nRSNbdhKzXAPuFBO25/1Y2EplpJ7Khl22G3V8Yf6A1QDCiXYz70fhikcYpxANI15XSp+MTorQSOYrlB72whnZ4CpQfSLleWjaUZjSKT/pjB1IQTZInHIAVwM6vjDfwwNnhaEmEmJeSTOHS0A+p+eAsqZObVNK+koOn+rIxZObG+smxkHVXOyUrmo/Q34XGeA34CTeIAJB9D1yDf6JWf8X0AVXHivXBe/mfHuu8cb/l+tewBnoTI63TurugEw38Ze354Es+akqw9POvzVSSF+Zd8xFB9fVVa1lmqF1n8llh6xxuExBHFUqzMPaQM8fpTPVpWs3J2FavgZaLD6GfcfRINv2APGhB59pdszb5tBikMjNFDWa7PqzXz3W0DiqxqLaYTF5nIYW7QrC651H0+eS2Mio2UOeuzJIXI4j74B27Ui4D6PeJVxaqt3lFlm1XktUCLDWEwiDVueO5y5yyPrMpqV9Pl1GEfjyLvWZycFbIhtnO4kljwJVKMZ67DDS1QF+a6R1L1A7aTIfPGMYSfeD6N1vLBUwon/SmJ/WAzSQdaTmpWKSUylpj9HJ6RkTll5nwry3pD7Jlffw9yYZo3dOOjiwoLcOdPIOFV1j0S3x4VvNB88mvIyvDOqdNfryWP0aNnJXrqol0cbJhExKkSW7aqHK8iYO//sw2EPx0tBZRUw3oUmcDLlwqJ9YVi7xID6BjizV2Dk+oUzM3gLEDi46gdhBW8Zrabb6YFTeQV/6Bxu7JVAyYBN81Ka2rKhjbs9WmmKpJ1OseCFcNKga+pOthuCt5sk2qjBL7xESf3m1oJEjmcuOJdNDcp8FG7en37UrV5Xst+53Lb+CwmnDTde8e7bGP4KiXwO2kItGGm2zymL7MxyAtrQBT8U72Uune4Q8a7xlxtYJYBKUKfhL1hB40EMJKWDBYCWhI34bM3psgGbrO6SRzvwzxPuAjGHlD5kfDXgp2CugYO9enNRarhhNMLR0Xs++zUw5s3K9RUBy9Pcv8w3f53BNNf9JJiQ/bmDZqQUbKOX3KEuiJH2tLIe78rvoZC/WPsVbnESjVb2X28lIRgUy4R96LneY0qflVKowT5fK5psnct6UVr0fgZ7LGGu+qozlv9DEcw3OtpuwcJuWQFfR4UT7EFNLhUuPIcebldI2IWnRfUneOn2HPcQJwYHHhSwItbB7eRd9KXAtgXsvNGLt3GI55wecLFsMErClrjd1RmvgOV/5+0wFC9wEFOwh9gd8eSmGkFFYAMAFkxUawU8SbRbe+wgTHnENk9lA3xTIbMneB489tn614KDCFhByV2cLrj8Dra/IGvBIewHg5OZrs87XOhVY/RS807G9XLcsNXaJ6YIwtYJT2PVWbgWTalber8lUnowAb4GwE9CwvQRiY+QVLILEsOHjsODh+3o8qBli718xxdn6sYrnmnCk76mo1Va5oORmNBg2w3eaP0G3/OkR4/uTCHktmyhcIAnhfjfut0CBOuC8E0HdhD+9T/DKxVvnjnQFynBl+KQ63uP4CQvMUTb8npYjHKvr6ux2zZlgQRAzm4SAGV/pVgQNBbVvSviyHA+7yTSbtnDlit4dyyBvNevquHPHIm2S7E5OxkWgb+RftB2uMgznL1UJjhh/v70IGHVbkcQsOJlfSrooGgqBpX3KWTkOOYB2qfzh2DJluQk65Jxix4HIg4WaYHK5CcrHrqlz45S5BZCn2XzwRlFFgDJ/2icAroFTzbBECCZA9t/kYQkFTUsquGI+iyQmiaUvzoq7QMLQlChZNCv4oktL351600VhX5BqZgXc0Gn9Z45pBbjQNmU4ikVJk9a7lbjfvITSjLQbg1C8ldj5Fgr7owdK89nha8yjOLiEUGOuVxlUBLTrDMQilpxz1lh1wOe+B34j+qTYgdKe3+Wjt7e1Cj2neEBDoKdmXoimAgcDEr/CV0PdtO39f8LrdqoQFWrQxDtM6rhB5OcEZ3HczJiOazCWFqb//9K2lkLv9VwVk3DUvlCl/6jI7ZR/9YRnDfNHtJJGYLieOzQwmJ0AHGR8vnQq0itAd3KlojSomKwdRDE3o6G2tvSr1zqqgh7AzDtIzo/99Lp5Xc+ELY6VZc0dMCrXYULAoh46ZJ6IDqJ+FL8wYtqs1PpxjjsZDQjPKEReflIVOQ6OKr32Hq/7HbHLnE0nNJ02mO0qXunwquzz0Znor7KMPhbU+ikKyahCyeJAYBASs8vAn4x48Sjuisr0mf4bAIz9NePDH77c/xB0YCZPFHZQSXOU+86rgmCANbpoZlpmzK9hEUIh4TpB1XUT2oW5bU1Eubz2n30gvCdIEf7HuOW7n+taiODjssfS72sr/ZOSDvRIupditRV9SJpj9K+OOjV22wu1Nv2f+mvBFBErc+LiBkOT2U1eme9kvAzwT/OjM4yFfiPAu8Scidgj1MONBe8lsX6q+pFZ2hfzuywfQBQbJled0GkQ0i6UoMMj3omixM/VJEcOlSRbPXO7Gf5SWoKDFW5Jj/7kkZR709Ds/ZD2xa7U6i8usjtUSsf1A4DAsMz7qr4fi6MkG4u0lz7M/OtO/hyXhMbBjjFHFB4LpxnU+1SzDYFJXqZ8Qpum5CciLu6eX/DnovXN/0NLyjX41i/L7WXzNOyG7Uy0KA3GuIPLBbqjqVn1gFRu2oy5Tulrz4aWLnH/p6Y2gNlc1YfMoUODbI8F7V+sAShL8S+VYk0VXqzmcundKxMHykfrKDi4Ck+r9EGnVwKhr0RUdo9HQvdKTE5+5XdXHPtPyMPVRGLhlvHMmgIXKiFReEjO2kPjLKMRn+TOjEs8iDKzmGNsLAAxIedT12nmCb9y8zU9nhIBnUFQVOdjCOvdNRZxQbpk4nJT/uiszwh5J4jDx3UnjTfKgnOhR080Uw6vs1y8KJnv95hSn4/7Ppsh/1S5C0fHuFf0r1k8QAZN3vqX4MFj4sT/jmUoia+VM+wZJ5n9wlzDB/MYWDDX2znwzb8WX9bARfshvy5DGgtL6y6BdVzESCaN0osnYEwq4ZqBs5n17Kq/OAIEyuntZZ2p4zIP/pdennufoWYT+8/+R4CoyKm+M1cwUuukUUyV8l4y1SMhYKN3AQp5ERnJ7WK/TE8AWip8UOw63j/a2JEqth5D1lHdFFxKZidlXDIWZEwZllsa9ejsm25Euvm0APcR6kiKf9EM4Ciw2Wg50Znj+v3yOG4WvTyB4Zb453NwD2aM/coK1sCObTCRVLRMkrYXCfNhxR2SpzH89LwOP1mUGRSGIE2AZqi0PUH8WnK/JkR9atNhrgSqfYByITPPjOmXiQUV28xhJmARmtTsfTg3VmSXXAu8lvgEi92K3h5PeHDdsjoobOmv0PqumD9HdspRZGYozeHlfqoZWZX99VQsseN2QbFR6TBh5vbBg4PiQTkUzcrv0u/Qy7ohtjTXFwXOW873suxT1w3hQ3NaBnhGkD+HSH6/ZkVug+En0KbXQ+TQERSQeHPpK6/hx2qDUg1FWBH+7HRHg6mMd2quHTcdhmTbRMjtlAtaSOM5oX3p55AdIhZFIJNyf/jtiHsh4kNmeiSENAPSPIM2wXj7O1L6qwvN6v/2HTfkU7J8g4vorRsRCgOwC9iqXTsdshZeJOeY6ZbWl1/Tgak+cZ+9lMXB3nQb9PmgfHL1eSlKUUG/QfsA797gUFuNqYZupGt+EXznp1inFNyCJGHlFnDmGy5H8uu+Almv2a+X614wg7i1JecKrb05ofWarMO1qHXksaRzxqFGoTaKSb8WVfPzLY47JZP0VBLtsOXFWAfqlNkwE4Id1j6gtTVfQ7/v+1mSFW+go1tQxIyR7q0DZdzzb6EeNZbRJznXRNFGibtri2taYHC7dTFpCkPV7Z5bn4Uy1uBH+MQENoMRbvX2pQU1EafHl/KN8DuJ7OZwJULH6vmD/hSzgVrooJCQGv3Nk+vtef5/ePFkyyLl9lntczDNk8toP665Z6q6E2bp47WbuTAUtWZxX1ejzRxGiu+huzX5f0UyYFOCfkeX6+1PfS5iyhsCp7E1wiMaoox0Z6Kr1R5xLFV2IBDjwxb8ITQCtV5nHn9y0/Q5oWRlRnZjxV8zIwKuvuDzqnaQCc8KqBvVkmDkX0axiQLK5cPcpRusamJ9WpzzTGgQ2jUgNVIBWZ9WOB++fwtrLVf+iw5esUy0CQv9BiSzwaEsMIhL9w3HWtCwknui2jg6MMpkNLYPBBE43UnW3IPdOGtYexNKF8D5jYT0tU+CtHcCzSvNkiaRK25XBaD/JvQsmQmoggpPPqC9DLmwWKB5iwDqk+gH5OROiD11yA8TD69j6Nr9UopCvoHU3Bx2mrIPnPKaMNig42uEZ+gQbXXHGKvTxi6yNuYxCEAmezcGd1KSZLjv0lNwvFoBk9HoIChsQFh+Rz7SGNPcziRB0NJXus8G8MjC3seoMrhlJWVm+4POl1iEU6Zkg9DOPw+TALYZr1o/x0A8vfV3YXsAkSLgK0+Gh9bgTc2Fu9APZy/fFKkzcirInPBvIE4Hog4kwx0p3LFSf3jVFT2lU+2yZlX8WuX0LHEZRJiiWW4O/3xQD2QD5ThVlZVOFTX/9qQHaMKHVYS5OdgxOw0JGc2VSIeJAvgezVYCLoFOkR5Mt0DX1YoMVg5knGMFANDFDP98RB4t6erBYXw1kdI0P0JQJ6fKE5o8BQALspzPk/xY+7B5McfN/o/LYFAETp165fNfjD22Noi7w0eFh1+uh9VSQS0Icor9jsBKpxFLidddTVi9MbNa66OwLu8KzF44Zn18eMYYM4hVZ0QpJ9DC3khiccFbUpQdxrL9eIRRNujlg6K2+V4ajuzGbWFkhreK/rN3vobiTX/9PPF3MXNpDHxZZgwkkhgpv0y9IBoOaZon2Eat4ouyvz2D4sbUEDSJDCXLkXGaaexR+cZhg4mGZ9Hp7S6/0IW2R4JyI7xYCvPW4S0KJ7+Db1IIG+IlG+MGLj35VhE5NUl7fO9L9vs92XdeHyUywRLz58p3QIbbu+vwyF9ly7fF9bQUQcFeWaNDPPV0+X5BixW8pj9JOT9tEzPoUitGBM7H875JB3afUlZ5MzbG189yXn6crg+dpj1f/L3ycC9ry3rlA4ctO143dL3JIe+RGEVpTOsF22202EUBVGpiy45PwLsnyEoYWabRaHG58qWy+qhUCyOl7XZuyj4ON5FcmnXOoTOzdZsWbqP7N4PDVDjROFXMATLVsmoGy3Hfr63D2/VuoLMU82pxwZE5z/gjja8MYalq9hQfdfKe4ilGbxDfD1HgeInu15ZPPGPJTxxTxqVg0t8JJixXimKmTsO9+Qie1S/x13OlgAkjzSH6tADGmzRfxMnevF5lqf40CVW5WZeY7yDWMWTT8VPzudfeS34xkBEA+2Xed1i+xBO+VwZYLPg1NLGNILWoWpj5aI/NT31m18u9WgNshhEvfKU7lOJ/VP8ItOX9lC+zW5uHkLTrF6QV/GacztydwYxJwXgr1Eqwqxu19Kdx5OfZktbWd5r6vKSDd/fBJ9y1fgjudaG+YQ4Mv3XMNTfSUe/NI2Y/Bn1DsBWaW7pthaq8knq48oW+b2zHcz0Vh40flEKq+Qw3qyBNIBX2jiwjg7YkFyXorrnmgGHjFgQw2kHJ86V4oGgGHP3pkXVqJh+os4stYB/UmRv7pmqdL6tSl87JE4NykwWxjyKiSMl0oKoktZD/UkLAGTP+cduJ6sjIjhFGedqkER4eJeUfzIX9eBtqtT95oF5Ta7l5TOzQigg0cDqIZ2/K9YwvhUXyHnKtynEuhrh4njUYkgXzQYYaIv1rY4/yVZKUB/HngJmVRSNXfqlvtdWeEwn//+badRX989xUZNDNSQHaIzij0MbyfB0VzMGQmqtX1Fze8GLY6E1wyeT+GEVlxVOJxHrvZvpTejGgEJ8kXSmA+3GSdDjngi6Qqdcjj/rSjIkaV4l8HzGrPx6Ojm2jyj2VppopYNOgg2PGiBED9D/FVuxziCgz6PHZ2oZi3mYVs4Bru1wcHG5JclpTqU6tT5kyha7OWV8LjWx+D9QhzJIWiEKxdoZQoTxAkaYvaF8hvAj37EGR+UfzErTPMzrS0/lwSpdeghHqmKdF6AgQgKzwRFHFjyPxMblcv5DOZf9sH2fY+PuT2kfhGz+4tOK8sJNfPKnQn7nrmRMcsVG0jmlpWk14Cxs3INLu3CzBVluXI67eECjYkY9kPHRlC/IkRtwQykhH9gWhO+fNn6G8vppgaMv+7m61EXQIdyBgE3Tcuvq0wMM+VqjTOgen51VagN4ko6J2UrJC52wmhpPl8xCQ7EwN7uD3p26dXoz9DkdkjizWQdILneMUICmXM/ZLDUwop8pzOim+r6TfTNwJTkRtzSHn0fhqZvQtTgN1IWt5WQ9P/C5zS0JD32jau8QUvv0MoGUhP12jPFCkrpP0QCKSa7OXKaNNz0jB5L8cohBgOCKyZK5/1nxLmEupPDOqZMr78gm3mSSIhfJSh8Xyu9HyI6YMiwcz3MQ8ggisLUuwGLRAzzS42kt2ajRBNs/2SKSnfYeWp1hGH1rEPpLspWwd0ZKR6RRzANM8eT3aSxBHQl5TOOiUFBtILyJcZoeNHwl2m3oirbNb2mYb3bUbttUf5is3AlInR0iQyNiQzBDWxtTPS0siUev09jDs0O36LsBckN5KeRGK+ead1nvPSIDCO9YJhua3QuEcXee/OYJ4M74tJAFoaA8KZQTJmrWrkartmDX1Xn1PVayg4w33MvActfbX2shmnPFojaVxyXzMMzbhB7OPs0Jb4WtK5sd5/gjxxzKToARbcWQzzVz59MEPrlXNn2JicORyJEIqizrxvilDeuk4kkuWShP+yJYIye//jC/uz49B7zhZfxzlwcR2b81t5X0KLVPMBJNZa67Cl1KgqqGki1ypFplVMrnI6zmQ0V5zLRbvevdv9k2OlbiqmXkhYQPt5CbQH8X9olWuotFvRn8UfDMWtogN209qDpU29UyQTlByfOvtSi71/67HhA/76zsUIPYz4RgBlS7Ced+9Nlf4RvW4NPASbOQfD256Ka6qf2SMMIA/SGZhiRrWOHjyhAkUCAxADCFIXqxwDpnCL/8W4UFRfVvZS1eIcyjJYORL3Xft8o6Jej34ZaAX5E5Fs1jV0Y6uoEAFn9A1Y4yc0y48ULQZ+KPVmWGWQIBHYI4yDqV/KHIxZ6X0fT+WDA1ewUqsR2P/CvsJHOuCFs7CAuBEU69LZinatkeQm9QbEQyup+XF2iOzkY9+X8yG4jQ1SjsDvm3NkONy0/BbJ/zDMSkdT2CsZ4YQqc1Ltszofc0SXqFyC01d6YQa0asAS+T9XHTt9jobnuQGbKPb2d8IG7hEWw4yshzo9PbkzkhcP6m0uLBe3RwUK/Xir/3LD0OWnvGmQDsH78E0KOHWfnYVFekiAyUF8OiJwW4Tcm4rpKhD1R7ZVTlFB3QWlImbchgx2GgK94RyxLAZuwrioI/YpD95bpBgMX7WbMVIbDhVRJ/UDMaw0tyKJXjmIfWHaQBPEARzqo8Hx81i2OsR4NT4lUq/1oCXxCsk/+RhDPmTWvCbQ148LOwY13/EpAr1AzY/ebyEVGLIGKD9bSAdAoXx2yvseK2mRsL34oMeEvWsPBedIjVwnNB0GdJR9/wr+L63PuICUL47QyP11hj2u+7GHjtzFAMMHAGiy755ZZBn5/hv9ckof+/azzvjMa4gpKHKnVBQYj/1NLyT7TW+IvqvGUmJbF5uZ81ltsMbwUrpaMDL+c1HdG4AEJ9WVArpBHvY0Zk4iot2PuGE8vJqEMU1QDL+DN9aaMub29Uv6WjdgQDtYKufrSfDxbW0lA1pGLP8wS11cDys5/S9ujbuTG/OHWMkK/PSAwsILIJ68rYP7Cd4p65q+lm6Q2E291vhHEJ+DEGA2MexOt6qM5qy2aMEq8kBvufkJ++TopMvY++E/I+YLB4CijGqabmSPxC+w1RO8pgsYLYntcA27RWTkRWxlDSOw94EEHtnILel6woS3Yjv6BOjRwcyQot7Ff3DvAotiTch7MqMilGIEm4Sy29jSraMbrPTpXkRWZBa4fQfbilBl9SP7KwmKcnDuQMTSVH0eQhoArMMyr9YCjcRONWfiedf0g4LpcfXpNJ9MGe6wEkgfcWr2j5tLNnE0vQRFz+mgAKzspXbItg+TxM2PbGGJ6M5vJlrURy/GPYJeVsTwPPYTlOGjPsKX1G8m4UnRQXzs7yD5S/wOa4WxY0qQOd5Xbu3bJFxrv14oqZpspYys8GcW5MP9s0ckJZZ+Xu3IFFo+WOITRKwNMU5FrvCxrnHICWesYnTjEN0QilQJKDAH//UbcEj7VpDU6eUFZvphS7EvVc94s6rtqNMIgPujgLLGzW4XbXpCoCjkYwBpIRDK7LRb65BMvJQO/hKjUSjv+E8azEs/VFr4qnRIHqgdY5L9hg3Y/2sy8vL7LEB2Q2EHnHYlLIpl5etFpzZ4mGdSvDMrHJKpWzT3iXsaMKdfGRjwgQiLW2sW1L/w8Wb8GQBUk0hDS3EmVPXdB9F0US2QZESYMJYxMIKssprtd16ip7loXH1b7QM+hMDSihDVn6OYiAmNDSl3oyw7a3Ek9EDxXiwAFsj/5Upm1W9speSt8IjFBq0FFZGimTsFeqXwvGRiXGmP3bleMVbmfXWJURRoLs/trWGD/zUfIkEoM1YKI8V+v/MviDt+Izru8PnbBx8c/h0eaOi9w3tG09+7xB0++o3HhpQxYbO51MXFHh77h89v/RhmBwvaJZqV5KFOjtPOBH0Cb4QLGNWXUD5QshNqnZygjsmUr0apO6P6fv1RonmSBxhvLWfwIUok1H7R9zCrbfv2m/OHrzD6fO19R6ceJKyvPgju4anwgjQPAPq3348w9C0eTuvVZZXzi84Qo2QKTUEBzXmzRGBtHGQz3mRF0pcTZqZZXj2pehJTFQY8I5ZBpcjpTqGdo3Rg8oyVSdcY+UKE7/rqVfKvVPQMBac11GEYviSW+/Q/X58HZiNIBrJcYgQofgQsH/P5ifw1eSFN/u44QqZTM8uFJO+9sWrK1srSFrfHzclNx6CYj/mfdKz0pGTFj6H4jG1+f0l/yrpaBhT8T6De+9c+ud+6gd/KZt4EADhV80WzorGLYAMBZ8tkZ8fJz/n5v/sL5/yHpEqjkf0JdDmJPjOBfWsOeYPWIHQFsuKwxeH+5Nq7tkyn6J6dFLXzsr/z1jz51fPtePvuuKlpJTBWU+MGl3ZA/xH4O2USuQQ1eESCIo+/p3Qi8E1fHyBLVjcdLL5aPD4PaoFKawpYx0r2JSrE5OP4m5gK5wtHXH+BVaAUBgqXmKH4R8qvmJ1HuxAg/EF9MV6I3fYwirWtS3/ZadQE3jMBvzxXxfMVD6SudKlKUnfzGdcEZgIAQgGUTvDmZgTklQNKzwKIXYFtveFbzxGw93sahRNY2d4WTW/nNubdO+30M5Qk6EakPs/yQhA2SmxxmEJ1rspBCtwGXWDbi8diLeedzGKIJOAaxVcSmiI07Df7nR5ob89becke2ni0bm/tPqegQBHL+RgVIsLYvcog2FutJ+/DN8XzGg/8gVk4vzjC4RbS5rOgNqyLW0BUAw61vlsfN+AAHeWRwQJHfskBKM/7tf8aFayWKNb9X2y430oWNgcRrFx6QpECcp9d6qh+xX92JQPU/Gu9/kGu7jrz7pkwPqOt8mmLHWSU/M/KSetdzo4iBdTlrv7slggSF7hGwF9puE/jrqnotL9L9TC5NqG6/u16gGuHiHNLhWzwCKJRhE59z/gSgG9SKxjL2OHESUY7ihB0xs4CDYSeJh7ZIolYXlLaMgTaGwijziB3orfQfkAALpBIzqJLZcK/zKeB9j1lixRj3DrtU23fW1ebjviQhWwJ0zyycpzmsdQz2I765Z5z7iFx9t3TRP9TdD1Wri4DMAu6ZtgzS0VqN73Tz3CTsvdnjF+B2PPVVUa+FPw7wwdCNDZG4fqyDxIZdnXlqobSz7rl9mQDkJ77e91qXa1CA1sQLZE7en6+2qNPsfW93NldYHAYuYUU6FJMzglnpdZVcIdXbVB8P5aP0ONXcrWIaM4+1ga3DcO7U7IyIxGv7MGp4FZCt+TR+K0DCMJhVxTxFeH/MVrz/sg45/Z7g276c6HnuuaUeHhROWltyUNHCk9QFk/9oGPgGO+c2nyp0mwwm4tG0rZK1GlrXlS38N11hBjwlDOKqHOZ/d8Ugebjam6gdTNBYlih1cIzVbjShyT0cgi83XAg4q8lYLg5DGFEfYaTAESV+RUjZYCsCgJD/qmnubOeGk19Hoy54E6QCYROtu2GPfabiiKsJa/nb/l4nZ1yUQQQoRe/nLO1ahRVCUilAqPDNE4fzGgliDkADQzJ2DNn6vrSJMCc2C3dMSbvO904dN8fY1739O1nT1/PHv9b6AFD0SZfJtz4F57cPdmiok0uAdZNIkDOf5Y8FJhb2dlz0uO8k228hX/RI6Tc/PFBQ4mP4AIcd22jzgxL+8FJVpIrzlHFD8exi5dTOPupEmdXfQaWc72i0OmVT0MG45X/5GLeEHLLv3qlkM07NsqchaYkpHmIaJfcOAXqD/ga004ASLk4YVSaBPhwkHrKsuRB78MvlI3TwcfIbnYT3PPQpxpX0YYLfrPjN9Cr7RCOx8NllthIBvwvBkzrogEr+3/tW4/6p8o2aryHPklDeKPkAoux90o/EajeG6XO3J1Mo2JFoDY2J2KqEfjvZYMW5yG6IrLKL+XQ+Z7/spjfI3OfGmhU7UVw0yRSvWlXQHF+MCy5+6P85LLQGIqZJ+eBzJzT/rxPyC8R4Vy8wfxPiRG22zPYNUBVZh15+gNggSoiZ3kqJ0vTYIjCX0OaUW1KXrES63GQRgKxSwrJ/ax1uG9eMCY8dCIgw1rqs6umtB5o7cz5y1zTYeMTYp0IXWG/96vxjxNiYYTx9lnRT8HtXXhte8PlKGtdYdgu1N04xCYWTyLVlzKT0OtqwhUta6A521Jt9xaaMhoTxbcQHfgJMIAEjGrdVgrEjUb9mUiaYx/igpjPzD7E/8nZxdmi5bh9WBPQK1mLaEwupLm6Hv21bqL5zRMRY36IOsRBgUqkJmXFYqsd9PPho7Tn++9InRQZrtg0dwwZpOBCn0Edpqf+Nx9QGWrzdaQ/Te51pEM3335NPf/rrwMUyg/INDpF34WoCtC7DUcTz9Cu13lAb1XpqDCGsBMkXQ/UfpHu/PRgwbZ6Fwgd1h+iAHxIvFeeOpVKSLQ3uaFe3mdGc+WqCSyTpihLo1XWwTsUUzrf4wISJ2hxbjFxMiE2oIbhD/zry0po5H2B9mgLLRceFbLbPGPP8QUTLdgR7dmACbjh/mKsa5nCubHPy+S6txhv+a0cV8VKXlXGhLygCRzueiYOS8cT9lws1NlEx1kAuEiYJsIqD4G6BFYzRB5fl6Fm9gxmpwoX+Nfq4n9gMbM2AfoKfEboW5qaOTJTc0H7bEO5H4FwWNLxapGY30GDOSoaJ3m+PRW1QUkcjeg4ac1SA5XHoQo2FO6tW+Zbrq/h30EnCXkfjYFrSDQOfov297yW5hKAETqPNAHfNPyY8AA1RUbsoFbUODLboG6I8E2hErwGufrWvSLXe5W60yzxVqk0sF546AdE7BuZgC6lJgDhChkt3GfkTvur5eRLC5YPQAZe8MLD3WeK8/h6htLe/KkyIkai8YOrGZIcW19X3pT8u9NtaGGbpsRGeYDZqUm9XCS47t2EO/0W2/OBhYVVuZNcqdleKKVJsKLWfydlnq2LltBbavFVxQ/ymRn4UzxeOJ45IdyO0OS4DpBhoT78SRhyJTS93d/n7EPnDxsBOg2DbOjCZd4Y1RFLOp4CyTVD2MJxXKOUKi+C+ozBo5Bs+LTwR/GahVLPrMQgRiQ1d0J2JEPXCRZSYC5f/UaLAcQt/yeUVsJXt44H/WpIz+eGshGQ0Z58GcZ8GQNbikCUNtR4Z0SocbM/2y5lzZUUby4UbDBAJYBCiPj+Il2fSRJ4H0M3cZtyL3v4SkZrRX+wgtIsnp+e8yr/wWp7sOA2MpbQABVCEwkUpKiZ8dYlzEB/Im1AksKVSrox/rlXba2/fdyrJJk6O331+snpGaSIaRUZp0e59LClqokorfLNnSfPC5S/haaT1AFxPKAnwbw1rrXYXO2SnCgQYpMAPaB+7u0PIogtUshkRROmHt3evoxQUOPWrHRhIqO/06SqsgGZJxB3NF/C/3YyJbJyx6wGFBeR0z0/A4fT9vO3PcH5AcY1FxS7NyQx1Be4IIZyeamlIjXgRQQky6ijE09qIDtdpnLDQH6oMoSdZKQmHnjA9CcQ3dBaBxFY6e4sg+uqhFDVTLjJ5dbgkTNCO8YIhSNukjCYT0m/aTwiSS6ECNDlCrSWTfa4B9j5b/o8BKrAcjFkR8b5nclxPoXXkzjcEMD5sKYQ2mg3/wzNhKH+FHR6887frh+H7Zmv1YFngAT6bOgAEPt6AAAAAA==;" vertex="1" parent="1">
          <mxGeometry x="360" y="60" width="1024" height="1024" as="geometry" />
        </mxCell>
        <mxCell id="2ndlOI7fjybDhHlItpSR-5" value="" style="endArrow=none;html=1;rounded=0;strokeWidth=4;" edge="1" parent="1">
          <mxGeometry width="50" height="50" relative="1" as="geometry">
            <mxPoint x="-80" y="400" as="sourcePoint" />
            <mxPoint x="60" y="400" as="targetPoint" />
          </mxGeometry>
        </mxCell>
        <mxCell id="2ndlOI7fjybDhHlItpSR-6" value="" style="endArrow=none;html=1;rounded=0;strokeWidth=11;strokeColor=#003300;" edge="1" parent="1">
          <mxGeometry width="50" height="50" relative="1" as="geometry">
            <mxPoint x="-80" y="400" as="sourcePoint" />
            <mxPoint x="-80" y="840" as="targetPoint" />
          </mxGeometry>
        </mxCell>
        <mxCell id="2ndlOI7fjybDhHlItpSR-7" value="" style="endArrow=none;html=1;rounded=0;strokeWidth=4;" edge="1" parent="1">
          <mxGeometry width="50" height="50" relative="1" as="geometry">
            <mxPoint x="-80" y="440" as="sourcePoint" />
            <mxPoint x="60" y="440" as="targetPoint" />
          </mxGeometry>
        </mxCell>
        <mxCell id="2ndlOI7fjybDhHlItpSR-8" value="" style="endArrow=none;html=1;rounded=0;strokeWidth=4;" edge="1" parent="1">
          <mxGeometry width="50" height="50" relative="1" as="geometry">
            <mxPoint x="-80" y="480" as="sourcePoint" />
            <mxPoint x="60" y="480" as="targetPoint" />
          </mxGeometry>
        </mxCell>
        <mxCell id="2ndlOI7fjybDhHlItpSR-9" value="" style="endArrow=none;html=1;rounded=0;strokeWidth=4;" edge="1" parent="1">
          <mxGeometry width="50" height="50" relative="1" as="geometry">
            <mxPoint x="-80" y="520" as="sourcePoint" />
            <mxPoint x="60" y="520" as="targetPoint" />
          </mxGeometry>
        </mxCell>
        <mxCell id="2ndlOI7fjybDhHlItpSR-10" value="" style="endArrow=none;html=1;rounded=0;strokeWidth=4;" edge="1" parent="1">
          <mxGeometry width="50" height="50" relative="1" as="geometry">
            <mxPoint x="-80" y="560" as="sourcePoint" />
            <mxPoint x="60" y="560" as="targetPoint" />
          </mxGeometry>
        </mxCell>
        <mxCell id="2ndlOI7fjybDhHlItpSR-11" value="" style="endArrow=none;html=1;rounded=0;strokeWidth=4;" edge="1" parent="1">
          <mxGeometry width="50" height="50" relative="1" as="geometry">
            <mxPoint x="-80" y="600" as="sourcePoint" />
            <mxPoint x="60" y="600" as="targetPoint" />
          </mxGeometry>
        </mxCell>
        <mxCell id="2ndlOI7fjybDhHlItpSR-12" value="" style="endArrow=none;html=1;rounded=0;strokeWidth=4;" edge="1" parent="1">
          <mxGeometry width="50" height="50" relative="1" as="geometry">
            <mxPoint x="-80" y="640" as="sourcePoint" />
            <mxPoint x="60" y="640" as="targetPoint" />
          </mxGeometry>
        </mxCell>
        <mxCell id="2ndlOI7fjybDhHlItpSR-13" value="" style="endArrow=none;html=1;rounded=0;strokeWidth=4;" edge="1" parent="1">
          <mxGeometry width="50" height="50" relative="1" as="geometry">
            <mxPoint x="-80" y="680" as="sourcePoint" />
            <mxPoint x="60" y="680" as="targetPoint" />
          </mxGeometry>
        </mxCell>
        <mxCell id="2ndlOI7fjybDhHlItpSR-14" value="" style="endArrow=none;html=1;rounded=0;strokeWidth=4;" edge="1" parent="1">
          <mxGeometry width="50" height="50" relative="1" as="geometry">
            <mxPoint x="-80" y="840" as="sourcePoint" />
            <mxPoint x="60" y="840" as="targetPoint" />
          </mxGeometry>
        </mxCell>
        <mxCell id="2ndlOI7fjybDhHlItpSR-17" value="" style="endArrow=none;html=1;rounded=0;strokeWidth=4;" edge="1" parent="1">
          <mxGeometry width="50" height="50" relative="1" as="geometry">
            <mxPoint x="-80" y="720" as="sourcePoint" />
            <mxPoint x="60" y="720" as="targetPoint" />
          </mxGeometry>
        </mxCell>
        <mxCell id="2ndlOI7fjybDhHlItpSR-18" value="" style="endArrow=none;html=1;rounded=0;strokeWidth=4;" edge="1" parent="1">
          <mxGeometry width="50" height="50" relative="1" as="geometry">
            <mxPoint x="-80" y="760" as="sourcePoint" />
            <mxPoint x="60" y="760" as="targetPoint" />
          </mxGeometry>
        </mxCell>
        <mxCell id="2ndlOI7fjybDhHlItpSR-19" value="" style="endArrow=none;html=1;rounded=0;strokeWidth=4;" edge="1" parent="1">
          <mxGeometry width="50" height="50" relative="1" as="geometry">
            <mxPoint x="-80" y="800" as="sourcePoint" />
            <mxPoint x="60" y="800" as="targetPoint" />
          </mxGeometry>
        </mxCell>
        <mxCell id="2ndlOI7fjybDhHlItpSR-21" value="&lt;font style=&quot;font-size: 21px;&quot;&gt;General Output 1&lt;/font&gt;" style="text;html=1;align=center;verticalAlign=middle;whiteSpace=wrap;rounded=0;" vertex="1" parent="1">
          <mxGeometry x="-270" y="540" width="170" height="30" as="geometry" />
        </mxCell>
        <mxCell id="2ndlOI7fjybDhHlItpSR-22" value="&lt;font style=&quot;font-size: 21px;&quot;&gt;General Output 4&lt;/font&gt;" style="text;html=1;align=center;verticalAlign=middle;whiteSpace=wrap;rounded=0;" vertex="1" parent="1">
          <mxGeometry x="-270" y="660" width="170" height="30" as="geometry" />
        </mxCell>
        <mxCell id="2ndlOI7fjybDhHlItpSR-23" value="&lt;font style=&quot;font-size: 21px;&quot;&gt;General Output 2&lt;/font&gt;" style="text;html=1;align=center;verticalAlign=middle;whiteSpace=wrap;rounded=0;" vertex="1" parent="1">
          <mxGeometry x="-270" y="580" width="170" height="30" as="geometry" />
        </mxCell>
        <mxCell id="2ndlOI7fjybDhHlItpSR-24" value="&lt;font style=&quot;font-size: 21px;&quot;&gt;General Output 3&lt;/font&gt;" style="text;html=1;align=center;verticalAlign=middle;whiteSpace=wrap;rounded=0;" vertex="1" parent="1">
          <mxGeometry x="-270" y="620" width="170" height="30" as="geometry" />
        </mxCell>
        <mxCell id="2ndlOI7fjybDhHlItpSR-25" value="&lt;font style=&quot;font-size: 21px;&quot;&gt;24 V Power Supply&lt;/font&gt;" style="text;html=1;align=right;verticalAlign=middle;whiteSpace=wrap;rounded=0;" vertex="1" parent="1">
          <mxGeometry x="-330" y="740" width="230" height="30" as="geometry" />
        </mxCell>
        <mxCell id="2ndlOI7fjybDhHlItpSR-28" value="&lt;font style=&quot;font-size: 21px;&quot;&gt;GND&lt;/font&gt;" style="text;html=1;align=right;verticalAlign=middle;whiteSpace=wrap;rounded=0;" vertex="1" parent="1">
          <mxGeometry x="-270" y="700" width="170" height="30" as="geometry" />
        </mxCell>
        <mxCell id="2ndlOI7fjybDhHlItpSR-29" value="&lt;font style=&quot;font-size: 21px;&quot;&gt;24 V Power Supply&lt;/font&gt;" style="text;html=1;align=right;verticalAlign=middle;whiteSpace=wrap;rounded=0;" vertex="1" parent="1">
          <mxGeometry x="-330" y="780" width="230" height="30" as="geometry" />
        </mxCell>
      </root>
    </mxGraphModel>
  </diagram>
</mxfile>
